<?xml version="1.0" encoding="UTF-8"?>
<svg version="1.1" xmlns="http://www.w3.org/2000/svg" width="1879" height="837">
<path d="M0 0 C1.86268524 -0.03366417 1.86268524 -0.03366417 3.76300049 -0.06800842 C5.12551749 -0.08102576 6.48804739 -0.09274791 7.85058594 -0.10327148 C8.53631432 -0.11017439 9.22204269 -0.11707729 9.92855072 -0.12418938 C13.55995419 -0.16005072 17.19120184 -0.18357372 20.82275391 -0.19726562 C24.56709931 -0.21379091 28.30954819 -0.27216831 32.05325699 -0.34040928 C34.93758432 -0.38528694 37.82146161 -0.39876681 40.70610809 -0.40388298 C42.08564682 -0.41176042 43.46517214 -0.4313577 44.84436798 -0.46310616 C55.56664449 -0.69357736 55.56664449 -0.69357736 59.18141174 1.76269531 C60.74952216 3.54032358 61.92318966 5.27633855 63.08496094 7.33813477 C63.70169678 8.23161621 64.31843262 9.12509766 64.95385742 10.0456543 C65.47020752 10.88725098 65.98655762 11.72884766 66.51855469 12.59594727 C67.10620605 13.54115234 67.69385742 14.48635742 68.29931641 15.46020508 C68.8885791 16.40992188 69.4778418 17.35963867 70.08496094 18.33813477 C71.23738439 20.13050516 72.39490903 21.91960639 73.55761719 23.70532227 C74.43123901 25.04723633 74.43123901 25.04723633 75.32250977 26.41625977 C75.92474365 27.33922852 76.52697754 28.26219727 77.14746094 29.21313477 C77.79158936 30.20055664 78.43571777 31.18797852 79.09936523 32.20532227 C85.1805658 41.5114806 91.34002028 50.76439847 97.52294922 60.00317383 C100.20406147 64.0110134 102.87680033 68.02442924 105.55029297 72.03735352 C107.49461709 74.95503156 109.44126935 77.87108915 111.39355469 80.78344727 C115.22234532 86.5020592 119.0248514 92.2351585 122.76855469 98.01000977 C123.41928955 99.01290039 124.07002441 100.01579102 124.74047852 101.04907227 C126.01519007 103.01605001 127.287335 104.98469446 128.55639648 106.95532227 C132.32511861 112.77064527 136.26132521 118.415525 140.39282227 123.97949219 C141.78334826 125.91772211 143.00248136 127.81387087 144.14746094 129.90063477 C146.2051796 133.55142594 148.51788333 136.88819095 150.94042969 140.30297852 C153.64303284 144.12797423 156.30384967 147.98076715 158.95996094 151.83813477 C159.44859619 152.54510498 159.93723145 153.2520752 160.44067383 153.98046875 C160.89821045 154.64506104 161.35574707 155.30965332 161.82714844 155.99438477 C162.23819824 156.59057617 162.64924805 157.18676758 163.07275391 157.80102539 C164.08496094 159.33813477 164.08496094 159.33813477 165.08496094 161.33813477 C165.08827108 160.52053492 165.09158123 159.70293507 165.09499168 158.86055946 C165.17612219 138.9898721 165.26818168 119.11926177 165.37248802 99.24868202 C165.42266419 89.63951849 165.46910642 80.03036371 165.50683594 70.42114258 C165.53972061 62.04823205 165.57953209 53.67538842 165.62775099 45.30255163 C165.65305118 40.86695275 165.67482194 36.43139846 165.6883049 31.99574661 C165.70109348 27.82447881 165.72311281 23.65336364 165.75234413 19.48217964 C165.76144509 17.9478819 165.76711597 16.41355957 165.76917458 14.87923622 C165.77247948 12.79094843 165.78790769 10.70309805 165.80648804 8.61489868 C165.8120188 7.44422159 165.81754955 6.2735445 165.82324791 5.06739235 C166.08496094 2.33813477 166.08496094 2.33813477 168.08496094 0.33813477 C170.74169922 0.08416748 170.74169922 0.08416748 174.15527344 0.0793457 C175.42999512 0.07304138 176.7047168 0.06673706 178.01806641 0.0602417 C179.41536598 0.06382138 180.8126643 0.06792331 182.20996094 0.07250977 C183.6372077 0.07116306 185.06445403 0.06922247 186.49169922 0.06671143 C189.48441938 0.06376043 192.47702025 0.06805694 195.46972656 0.07739258 C199.31012467 0.08878721 203.15024326 0.0822276 206.9906311 0.07024765 C209.93825393 0.06302834 212.88581025 0.06531728 215.83343506 0.07050323 C217.24965447 0.07183954 218.66587987 0.07019267 220.08209229 0.06554413 C222.05960986 0.06047802 224.03714855 0.06956569 226.01464844 0.0793457 C227.70436768 0.08173248 227.70436768 0.08173248 229.42822266 0.08416748 C232.08496094 0.33813477 232.08496094 0.33813477 234.08496094 2.33813477 C234.33565927 4.30265427 234.33565927 4.30265427 234.33664322 6.76409912 C234.34185871 7.70039783 234.34707421 8.63669655 234.35244775 9.60136795 C234.3479863 10.63695217 234.34352486 11.67253639 234.33892822 12.73950195 C234.34360819 14.38153658 234.34360819 14.38153658 234.34838271 16.05674362 C234.35640284 19.7495527 234.35002344 23.44219927 234.34375 27.13500977 C234.34645808 29.7724252 234.34994523 32.40982918 234.35437012 35.04724121 C234.36328152 41.48195708 234.36133436 47.91662639 234.35554484 54.35134411 C234.3510352 59.57916332 234.35041241 64.80696944 234.35259247 70.03479004 C234.35289893 70.77773843 234.3532054 71.52068681 234.35352115 72.28614879 C234.35416058 73.79525026 234.354809 75.30435173 234.35546634 76.8134532 C234.36117475 90.97725488 234.35460374 105.14103072 234.3438656 119.30482817 C234.33492963 131.46828707 234.33648152 143.6317078 234.34570312 155.79516602 C234.35639675 169.90693923 234.36062538 184.01868976 234.3544786 198.13046646 C234.35384147 199.63413747 234.35321273 201.13780848 234.35259247 202.64147949 C234.35212964 203.75134472 234.35212964 203.75134472 234.35165747 204.88363147 C234.3499278 210.10752578 234.35285147 215.33140576 234.35755157 220.55529785 C234.36315034 226.9181044 234.36166521 233.28086159 234.35099009 239.64366245 C234.34571976 242.89248416 234.3447692 246.14120603 234.35028839 249.39002991 C234.3557123 252.9056927 234.34894819 256.42112 234.33892822 259.93676758 C234.34562039 261.49014391 234.34562039 261.49014391 234.35244775 263.07490158 C234.34462451 264.47934965 234.34462451 264.47934965 234.33664322 265.91217041 C234.33631851 266.72444721 234.33599381 267.53672401 234.33565927 268.37361526 C234.08496094 270.33813477 234.08496094 270.33813477 232.08496094 272.33813477 C229.46859741 272.64593506 229.46859741 272.64593506 226.10986328 272.72387695 C224.85450775 272.75600281 223.59915222 272.78812866 222.30575562 272.82122803 C220.9274975 272.84420909 219.549209 272.86542515 218.17089844 272.88500977 C217.4766338 272.89565712 216.78236916 272.90630447 216.06706619 272.91727448 C212.38801746 272.97074885 208.70910428 273.00948333 205.02978516 273.03833008 C201.99274375 273.06495228 198.95840947 273.12051873 195.92236328 273.20239258 C192.24977054 273.30142645 188.57962096 273.35061386 184.90575027 273.36478424 C183.51096536 273.37815497 182.11622924 273.40846289 180.72220993 273.45656586 C169.85232188 273.81006381 169.85232188 273.81006381 165.49153137 270.17822266 C163.44559233 267.65251573 161.73879619 265.13240728 160.08496094 262.33813477 C159.18469015 261.0310065 158.27878764 259.72769756 157.36230469 258.43188477 C156.57779814 257.23694854 155.79781233 256.03903164 155.02246094 254.83813477 C154.17051016 253.5393578 153.31764363 252.24118108 152.46386719 250.94360352 C152.05797363 250.32533691 151.65208008 249.70707031 151.23388672 249.07006836 C149.68407856 246.73382972 148.07825293 244.43983596 146.45996094 242.15063477 C144.02837571 238.70683151 141.66473696 235.22666338 139.33496094 231.71313477 C136.27298391 227.09967798 133.16503287 222.52177922 130.02246094 217.96313477 C120.84614885 204.64874212 111.69957772 191.31338148 102.76074219 177.83813477 C100.57352766 174.57515739 98.31781178 171.36330316 96.05761719 168.15063477 C90.01888596 159.54095856 84.03099072 150.90719266 78.39746094 142.02563477 C75.17845556 136.95378014 71.79152499 132.04650073 68.20214844 127.22875977 C66.24878613 124.56180754 64.34609908 121.86712324 62.45263672 119.1574707 C61.82205353 118.25542908 61.19147034 117.35338745 60.54177856 116.42401123 C59.82065384 115.39150238 59.82065384 115.39150238 59.08496094 114.33813477 C59.08680452 115.13419789 59.08864811 115.93026102 59.09054756 116.75044727 C59.13468096 136.10401155 59.16779526 155.4575658 59.18858528 174.81116962 C59.19890593 184.1703554 59.2129813 193.52950763 59.23583984 202.88867188 C59.25574961 211.04436855 59.26867163 219.20004093 59.27313793 227.35576123 C59.27574941 231.67573025 59.28190384 235.99562977 59.29642105 240.31557655 C59.30996686 244.379273 59.31418968 248.4428711 59.3111763 252.50658798 C59.31172781 254.00017391 59.31572312 255.49376304 59.32337189 256.98732948 C59.33328564 259.02251956 59.32974681 261.05776207 59.32546997 263.0929718 C59.32731356 264.23322972 59.32915714 265.37348764 59.33105659 266.54829884 C59.08496094 269.33813477 59.08496094 269.33813477 57.08496094 272.33813477 C54.42149353 272.70562744 54.42149353 272.70562744 50.9987793 272.69458008 C49.72082993 272.69758118 48.44288055 272.70058228 47.12620544 272.70367432 C45.72573445 272.6916695 44.32526748 272.67918655 42.92480469 272.66625977 C41.49516498 272.6632031 40.0655223 272.66132627 38.63587952 272.6605835 C35.63889176 272.65597782 32.64217232 272.64154101 29.64526367 272.61938477 C25.79585654 272.59107656 21.94666071 272.58017111 18.09715939 272.57570267 C15.14528777 272.57155426 12.19345925 272.56174208 9.24160957 272.54982758 C7.82177642 272.54411451 6.4019391 272.53935925 4.98209953 272.53556061 C3.00195724 272.52871723 1.02184593 272.51419064 -0.95825195 272.49926758 C-2.08695206 272.49243958 -3.21565216 272.48561157 -4.3785553 272.47857666 C-6.91503906 272.33813477 -6.91503906 272.33813477 -7.91503906 271.33813477 C-8.01345762 269.90135186 -8.04242982 268.45975009 -8.04367352 267.01960087 C-8.04689796 266.08180981 -8.05012241 265.14401875 -8.05344456 264.17780977 C-8.05189596 263.13542176 -8.05034736 262.09303375 -8.04875183 261.01905823 C-8.05101739 259.92113935 -8.05328294 258.82322047 -8.05561715 257.69203132 C-8.06198952 253.98233987 -8.06112573 250.27268464 -8.06030273 246.56298828 C-8.0632922 243.9158718 -8.06666552 241.26875824 -8.07048035 238.62164307 C-8.07880326 232.15939801 -8.08153593 225.69716207 -8.08209272 219.2349121 C-8.08256711 213.98466499 -8.08461794 208.73442089 -8.08779335 203.48417473 C-8.09660437 188.61441753 -8.10121202 173.74466757 -8.10046288 158.87490774 C-8.10042292 158.07249678 -8.10038296 157.27008582 -8.1003418 156.44335938 C-8.10030092 155.63997412 -8.10026004 154.83658887 -8.10021792 154.00885861 C-8.09981131 140.98344336 -8.1093834 127.95805699 -8.12348016 114.9326501 C-8.13782449 101.57360012 -8.14475142 88.21456424 -8.14388639 74.85550636 C-8.14355374 67.34923613 -8.14633011 59.84299618 -8.15706444 52.33673286 C-8.16614393 45.94645861 -8.16836582 39.55622837 -8.16155501 33.16595048 C-8.15827683 29.90295569 -8.1593541 26.64006355 -8.16690826 23.37707329 C-8.17455658 19.84603683 -8.17003124 16.31522608 -8.16227722 12.78419495 C-8.16742078 11.74403766 -8.17256435 10.70388037 -8.17786378 9.63220316 C-8.17326498 8.69180435 -8.16866619 7.75140555 -8.16392803 6.7825098 C-8.1641454 5.96665317 -8.16436277 5.15079653 -8.16458672 4.31021696 C-7.55755646 -0.48691705 -3.95912757 0.06019005 0 0 Z " fill="#FCFCFC" transform="translate(838.9150390625,298.661865234375)"/>
<path d="M0 0 C1.29474243 -0.00953201 2.58948486 -0.01906403 3.92346191 -0.02888489 C5.34285509 -0.02862349 6.76224828 -0.02768661 8.18164062 -0.02612305 C9.63130822 -0.03000823 11.08097468 -0.03434253 12.53063965 -0.03910828 C15.57043141 -0.04657574 18.61010703 -0.0462752 21.64990234 -0.04101562 C25.55092219 -0.03521644 29.45146795 -0.05215975 33.35240936 -0.0753603 C36.34636223 -0.09007017 39.34020014 -0.09097319 42.33418274 -0.08785057 C43.77274007 -0.08836505 45.21130363 -0.09362644 46.64982605 -0.10366249 C48.65844116 -0.11595677 50.66715176 -0.10731943 52.67578125 -0.09765625 C53.82002563 -0.09828568 54.96427002 -0.0989151 56.14318848 -0.0995636 C57.03244019 0.0239296 57.92169189 0.14742279 58.83789062 0.2746582 C61.31106744 3.98442343 61.0882907 5.83641716 61.08944702 10.26754761 C61.09241716 10.98372729 61.0953873 11.69990698 61.09844744 12.43778908 C61.10610256 14.84426758 61.09958708 17.25050307 61.09326172 19.65698242 C61.0960111 21.38015407 61.09969068 23.10332445 61.10423279 24.82649231 C61.11235477 28.54240504 61.11451063 32.25825756 61.11228561 35.97417831 C61.10945359 41.85890365 61.12380295 47.74350879 61.14126587 53.62820435 C61.18829531 70.36417818 61.21221408 87.10014469 61.21875 103.83618164 C61.22251068 113.07574741 61.24062589 122.3151779 61.27384436 131.55468571 C61.29398248 137.39433335 61.29646504 143.23363023 61.28556418 149.07329822 C61.28294105 152.72431071 61.29703995 156.37512281 61.31564522 160.02608299 C61.32092977 161.70735248 61.31953514 163.38865976 61.31060982 165.06991386 C61.24696796 178.12120647 62.39164754 189.71685434 70.83789062 200.2746582 C70.83789062 200.9346582 70.83789062 201.5946582 70.83789062 202.2746582 C72.81789063 203.2646582 72.81789063 203.2646582 74.83789062 204.2746582 C74.83789062 204.9346582 74.83789062 205.5946582 74.83789062 206.2746582 C75.79695313 206.6459082 75.79695313 206.6459082 76.77539062 207.0246582 C78.44509254 207.70616919 80.10846794 208.41191572 81.71679688 209.2277832 C94.67089416 215.62133398 111.00453783 215.98949719 124.83789062 212.2746582 C135.25412662 208.1542307 143.97375661 202.62567003 148.83789062 192.2746582 C152.32332485 182.89801866 153.97350759 173.98155175 153.94468689 163.99957275 C153.94413018 163.31360637 153.94357348 162.62763999 153.9429999 161.92088675 C153.93999005 159.64717155 153.92982434 157.37354717 153.91967773 155.09985352 C153.91611765 153.45986524 153.91303275 151.81987587 153.91038513 150.17988586 C153.90385684 146.66103057 153.8943126 143.14220111 153.88249016 139.62335968 C153.86414569 134.06000834 153.85458548 128.49666313 153.84657288 122.93328857 C153.82245745 107.11785161 153.78646243 91.30245273 153.74194336 75.48706055 C153.71740636 66.74276294 153.70003934 57.99848 153.69038397 49.25415301 C153.68383914 43.72231865 153.66827781 38.19060554 153.64606655 32.658813 C153.63434952 29.22246586 153.63096996 25.78614834 153.62996864 22.34978294 C153.62781868 20.75501594 153.62221848 19.16024934 153.61293793 17.56550789 C153.6007704 15.39083763 153.60090084 13.21650305 153.60411072 11.04180908 C153.60096831 9.82437138 153.59782591 8.60693367 153.59458828 7.35260391 C153.83789062 4.2746582 153.83789062 4.2746582 155.83789062 0.2746582 C176.95789062 0.2746582 198.07789063 0.2746582 219.83789062 0.2746582 C221.59364633 5.54192533 222.08523675 8.40202602 222.07408142 13.76429749 C222.07523455 14.49781368 222.07638767 15.23132988 222.07757574 15.98707384 C222.07886255 18.4346917 222.06571796 20.88201061 222.05249023 23.32958984 C222.05024779 25.08948179 222.0488243 26.84937494 222.04815674 28.60926819 C222.04335245 33.38709384 222.02524526 38.16477868 222.00340724 42.94255376 C221.99022852 45.93614486 221.97973735 48.9297333 221.97015572 51.92333794 C221.93635165 62.39313335 221.89111683 72.86281448 221.83618164 83.33251953 C221.78554037 93.04568028 221.76071505 102.75867394 221.7479915 112.47195154 C221.73577985 120.8410166 221.70437322 129.20987517 221.65870672 137.57882398 C221.6318639 142.56329855 221.61250317 147.54750742 221.61286736 152.53206062 C221.60193191 192.43236605 221.60193191 192.43236605 215.83789062 209.2746582 C215.43912216 210.45137589 215.0403537 211.62809357 214.62950134 212.84046936 C209.77112995 226.23485048 200.77695273 237.3210653 190.83789062 247.2746582 C190.12117188 248.00297852 189.40445312 248.73129883 188.66601562 249.48168945 C165.36549678 271.68725911 132.30399828 277.139101 101.34179688 276.5246582 C85.68582335 275.95813121 70.51960299 273.82767399 55.83789062 268.2746582 C54.74089844 267.87118164 53.64390625 267.46770508 52.51367188 267.05200195 C36.13271323 260.65993403 15.90094632 246.40076958 7.83789062 230.2746582 C7.83789062 229.6146582 7.83789062 228.9546582 7.83789062 228.2746582 C7.17789062 228.2746582 6.51789063 228.2746582 5.83789062 228.2746582 C-4.34695656 207.59026349 -8.64624028 187.72125263 -8.53442383 164.76123047 C-8.53685922 162.97873727 -8.54058574 161.19624545 -8.54548645 159.41375732 C-8.55478656 154.63164944 -8.54556854 149.84975007 -8.53215432 145.06765866 C-8.52074474 140.0464843 -8.52495394 135.02531876 -8.52690125 130.00413513 C-8.52778002 121.59289175 -8.51678138 113.18172963 -8.49829102 104.77050781 C-8.47702632 95.04138606 -8.47363782 85.31238231 -8.47985297 75.583242 C-8.48553728 66.20461249 -8.47991867 56.82602456 -8.46867943 47.44740105 C-8.46403156 43.46058319 -8.46316025 39.47379074 -8.46526527 35.4869709 C-8.46714255 30.80744684 -8.4590879 26.12804382 -8.44320488 21.44854736 C-8.43894919 19.72877948 -8.43812005 18.00899935 -8.44089508 16.28922844 C-8.44409833 13.95009506 -8.43508332 11.61132776 -8.42280579 9.27223206 C-8.42075292 7.96139932 -8.41870005 6.65056658 -8.41658497 5.30001163 C-7.93569787 -0.41705311 -4.97596075 0.0200361 0 0 Z " fill="#FDFCFD" transform="translate(1132.162109375,298.725341796875)"/>
<path d="M0 0 C1.04878578 -0.00262848 1.04878578 -0.00262848 2.11875916 -0.00531006 C4.44125821 -0.00972872 6.76368174 -0.00679024 9.08618164 -0.00341797 C10.6942191 -0.00409108 12.30225647 -0.00506117 13.91029358 -0.00631714 C17.28558315 -0.00779419 20.66084631 -0.0056396 24.03613281 -0.00097656 C28.36860479 0.00471617 32.70101477 0.00144467 37.03348446 -0.00454903 C40.35596689 -0.00815834 43.67843457 -0.00701426 47.00091743 -0.00442123 C48.59855723 -0.00375275 50.19619835 -0.00457765 51.79383659 -0.00690079 C54.02535436 -0.00943286 56.25677104 -0.00557866 58.48828125 0 C59.75989609 0.00079559 61.03151093 0.00159119 62.34165955 0.00241089 C65.30883789 0.12939453 65.30883789 0.12939453 67.30883789 1.12939453 C68.37668385 3.93434925 69.33865409 6.71024341 70.24633789 9.56689453 C70.51575195 10.39439209 70.78516602 11.22188965 71.06274414 12.07446289 C72.36591772 16.09824853 73.62723146 20.13056463 74.80883789 24.19189453 C75.99795586 28.24570578 77.38389842 32.21634741 78.80883789 36.19189453 C81.5930568 43.96274737 84.20095524 51.7887029 86.79220581 59.62536621 C90.64669141 71.27986857 94.60177862 82.88732039 98.74633789 94.44189453 C106.08037539 114.9152624 112.89432136 135.56183336 119.59399414 156.25048828 C119.8645311 157.08588135 120.13506805 157.92127441 120.4138031 158.78198242 C121.71369704 162.79894293 123.01013059 166.81697404 124.30078125 170.83691406 C126.81756092 178.65972418 129.41608513 186.43591857 132.30883789 194.12939453 C132.84731977 195.56564743 133.38572688 197.00192836 133.92407227 198.43823242 C134.38104492 199.65631592 134.83801758 200.87439941 135.30883789 202.12939453 C135.62522217 201.17500488 135.94160645 200.22061523 136.26757812 199.23730469 C141.80376692 182.54532189 147.35670008 165.862722 153.14770508 149.25708008 C156.00668668 141.0456523 158.76472731 132.80322733 161.49462891 124.5480957 C163.16130961 119.52205755 164.85777804 114.51196461 166.65844727 109.53222656 C166.93495117 108.75991699 167.21145508 107.98760742 167.49633789 107.19189453 C167.70776428 106.60375977 167.91919067 106.015625 168.13702393 105.40966797 C169.79899159 100.7274956 171.24853889 96.01692786 172.60571289 91.23876953 C175.00390297 82.95432565 177.72756073 74.80527983 180.55743408 66.65969849 C181.98127231 62.5612119 183.3930642 58.45857989 184.80493164 54.35595703 C185.09400391 53.51664139 185.38307617 52.67732574 185.6809082 51.81257629 C187.72853901 45.85410026 189.73596785 39.88310044 191.71899414 33.90283203 C191.99161575 33.08093887 192.26423737 32.25904572 192.54512024 31.4122467 C193.84742593 27.48184482 195.14495909 23.54991767 196.43798828 19.61645508 C196.90789717 18.19496654 197.37786472 16.7734974 197.84790039 15.35205078 C198.25218262 14.12236572 198.65646484 12.89268066 199.07299805 11.62573242 C202.49568312 1.9425493 202.49568312 1.9425493 204.30883789 0.12939453 C206.54270995 0.02975533 208.77977648 0.00139659 211.01586914 0 C211.71666595 -0.00175232 212.41746277 -0.00350464 213.13949585 -0.00531006 C215.46680138 -0.00972813 217.79403153 -0.00679076 220.12133789 -0.00341797 C221.73177098 -0.00409102 223.34220398 -0.00506106 224.95263672 -0.00631714 C228.33212244 -0.00779405 231.71158179 -0.00563978 235.09106445 -0.00097656 C239.43260294 0.00472073 243.77407962 0.00144169 248.11561584 -0.00454903 C251.4423469 -0.00815482 254.76906319 -0.00701597 258.09579468 -0.00442123 C259.69705208 -0.00375202 261.29831079 -0.00458021 262.89956665 -0.00690079 C265.133683 -0.00942762 267.36769789 -0.00558632 269.60180664 0 C271.51255981 0.00119339 271.51255981 0.00119339 273.46191406 0.00241089 C276.30883789 0.12939453 276.30883789 0.12939453 277.30883789 1.12939453 C276.90316135 7.14803826 275.42745567 12.02963383 273.12133789 17.56689453 C272.47324768 19.17536202 271.82745897 20.78475853 271.18383789 22.39501953 C270.86286133 23.19617188 270.54188477 23.99732422 270.21118164 24.82275391 C268.92015048 28.12298725 267.76740491 31.46418297 266.62133789 34.81689453 C263.76169212 43.11148062 260.56169406 51.27071845 257.37133789 59.44189453 C253.29200018 69.89149332 249.38795505 80.37750175 245.74633789 90.98876953 C244.17714907 95.55180544 242.44380825 100.04308861 240.68383789 104.53564453 C238.84748468 109.33520406 237.11400337 114.17017933 235.37133789 119.00439453 C232.5909983 126.70555075 229.67819977 134.32910766 226.59790039 141.91455078 C225.14453835 145.53914763 223.81305117 149.19575747 222.49633789 152.87158203 C218.1258044 164.86179563 213.48504106 176.75034518 208.71508789 188.58642578 C207.07667588 192.71431381 205.52127485 196.86967619 203.97802734 201.03393555 C202.19665184 205.81664525 200.36295572 210.57790051 198.50805664 215.33251953 C193.38996845 228.45789814 188.35400122 241.58266727 183.76977539 254.90673828 C182.39640554 258.8971306 180.97209275 262.86306577 179.49633789 266.81689453 C178.92979492 268.33863281 178.92979492 268.33863281 178.35180664 269.89111328 C177.30883789 272.12939453 177.30883789 272.12939453 175.30883789 273.12939453 C172.83297008 273.22745874 170.38528047 273.26571522 167.90917969 273.25878906 C167.14638702 273.26054138 166.38359436 273.2622937 165.59768677 273.26409912 C163.06778713 273.26851184 160.53795704 273.26558081 158.00805664 273.26220703 C156.25169359 273.26288045 154.49533063 273.26385079 152.7389679 273.2651062 C149.05269486 273.26658256 145.36644601 273.26443138 141.68017578 273.25976562 C136.95904192 273.25408094 132.23796506 273.25733973 127.51683331 273.26333809 C123.88712639 273.2669561 120.25743293 273.26579919 116.6277256 273.2632103 C114.88742885 273.26254381 113.14713087 273.26335974 111.40683556 273.26568985 C108.9700842 273.26823528 106.53342426 273.26434854 104.09667969 273.25878906 C103.02029488 273.26182541 103.02029488 273.26182541 101.92216492 273.2649231 C98.27116877 273.24952733 94.83341621 273.1320854 91.30883789 272.12939453 C90.11791992 270.49731445 90.11791992 270.49731445 89.31665039 268.35986328 C88.85343384 267.16562744 88.85343384 267.16562744 88.38085938 265.94726562 C88.06834229 265.07924316 87.7558252 264.2112207 87.43383789 263.31689453 C86.92348999 261.97232178 86.92348999 261.97232178 86.40283203 260.60058594 C83.77546137 253.61257339 81.31375182 246.56167832 78.88574219 239.50219727 C76.43481439 232.39067163 73.73679729 225.39277006 70.98071289 218.39501953 C69.19403 213.85708918 67.48647417 209.29247269 65.78686523 204.72119141 C64.20644809 200.48620745 62.59187735 196.26566029 60.95727539 192.05126953 C56.70466354 181.08323736 52.48150646 170.12536952 48.72900391 158.97412109 C47.26862667 154.67973039 45.64942912 150.4957242 43.88305664 146.31689453 C41.33824819 140.28712688 39.1088173 134.17551535 36.93383789 128.00439453 C34.0028513 119.76805948 30.97697871 111.58679543 27.76245117 103.45727539 C25.82514865 98.53184413 24.03604988 93.56951813 22.30883789 88.56689453 C20.34871232 82.89597197 18.20332076 77.34496334 15.87133789 71.81689453 C13.02900378 65.05945686 10.53398859 58.22824701 8.15161133 51.29663086 C5.57665088 43.8276772 2.86643864 36.41238542 0.12133789 29.00439453 C-0.2947876 27.87855957 -0.71091309 26.75272461 -1.13964844 25.59277344 C-1.74329224 23.96734619 -1.74329224 23.96734619 -2.35913086 22.30908203 C-2.74633301 21.26461914 -3.13353516 20.22015625 -3.5324707 19.14404297 C-4.93470843 15.49574303 -6.47858884 11.91630663 -8.08300781 8.35253906 C-8.83389546 5.6076242 -8.48064007 3.83791568 -7.69116211 1.12939453 C-5.80177011 -0.75999747 -2.5094859 0.00157106 0 0 Z " fill="#FC4C1A" transform="translate(288.691162109375,298.87060546875)"/>
<path d="M0 0 C1.91225955 0.00138269 1.91225955 0.00138269 3.8631506 0.00279331 C4.57045958 0.00193889 5.27776856 0.00108446 6.00651115 0.00020415 C8.39420988 -0.00145272 10.78183949 0.00407406 13.16953182 0.00952244 C14.87409113 0.00980429 16.57865056 0.00964661 18.2832098 0.00907993 C22.92557505 0.00879189 27.5679147 0.01468976 32.21027398 0.02165389 C37.05630601 0.02788624 41.90233857 0.02849113 46.74837399 0.0296793 C55.93170669 0.03279297 65.11502756 0.04100683 74.29835504 0.05102879 C84.75041476 0.06218883 95.20247504 0.0677001 105.65453923 0.07272422 C127.16141512 0.08318941 148.66828035 0.10078954 170.17514706 0.12304783 C171.93205762 3.41309535 172.40329943 5.50569196 172.31040096 9.25879002 C172.28014324 10.78992435 172.28014324 10.78992435 172.24927425 12.3519907 C172.2170779 13.4469083 172.18488155 14.5418259 172.15170956 15.66992283 C172.12668362 16.79626133 172.10165768 17.92259983 172.07587337 19.0830698 C171.99371168 22.68003698 171.89710586 26.27645204 171.80014706 29.87304783 C171.74190368 32.31182737 171.68460049 34.75062956 171.62827206 37.18945408 C171.48813843 43.16762427 171.33614459 49.14540511 171.17514706 55.12304783 C168.7542024 56.33352016 167.23570386 56.24622338 164.53082943 56.24330235 C163.55203823 56.24467701 162.57324703 56.24605167 161.56479549 56.24746799 C159.94855282 56.24207508 159.94855282 56.24207508 158.29965878 56.23657322 C156.60209942 56.23679226 156.60209942 56.23679226 154.87024593 56.23701572 C151.11508957 56.2363169 147.3599823 56.22852589 143.60483456 56.22070408 C141.00694461 56.21883979 138.40905432 56.21741594 135.8111639 56.21641636 C129.66300923 56.21298329 123.51487493 56.20509513 117.36672795 56.19506687 C110.36802638 56.1838985 103.36932398 56.17839345 96.37061572 56.17337143 C81.97211663 56.16291233 67.57363247 56.14531739 53.17514706 56.12304783 C53.17776546 56.70977772 53.18038387 57.29650761 53.18308163 57.90101719 C53.19360542 60.61174332 53.20002072 63.32246514 53.20639706 66.03320408 C53.21058651 66.95572971 53.21477596 67.87825535 53.21909237 68.82873631 C53.22950947 74.75736622 53.05636063 80.64445359 52.67514706 86.56054783 C52.19577202 94.09702775 52.06583022 101.5680399 52.17514706 109.12304783 C52.61342831 108.6873447 53.05170956 108.25164158 53.50327206 107.80273533 C68.30465434 93.90387635 87.15178297 91.41758392 106.60825253 91.98681736 C124.58022681 92.94062767 140.41644731 100.28391466 155.17514706 110.12304783 C155.17514706 110.78304783 155.17514706 111.44304783 155.17514706 112.12304783 C155.73202206 112.34992283 156.28889706 112.57679783 156.86264706 112.81054783 C159.83674293 114.49854819 161.89523571 116.589813 164.17514706 119.12304783 C164.17514706 119.78304783 164.17514706 120.44304783 164.17514706 121.12304783 C165.16514706 121.45304783 166.15514706 121.78304783 167.17514706 122.12304783 C169.80655485 125.59699454 171.96586765 129.36981225 174.17514706 133.12304783 C174.75329159 134.10337986 174.75329159 134.10337986 175.34311581 135.10351658 C188.8726541 160.11935677 188.89736303 189.46523483 181.17514706 216.12304783 C175.4370731 235.34261733 162.89527343 251.18509772 146.17514706 262.12304783 C145.36303768 262.6670322 144.55092831 263.21101658 143.71420956 263.77148533 C126.96879857 274.44736224 107.92842583 277.83394131 88.41928768 277.6445322 C85.80831143 277.6231148 83.20010259 277.6444507 80.58920956 277.66992283 C65.38200586 277.69670786 50.21068493 275.70292089 36.23764706 269.37304783 C35.45824764 269.0323325 34.67884823 268.69161716 33.87583065 268.34057713 C24.85936642 264.27244544 17.09961617 259.24535892 10.17514706 252.12304783 C9.42233456 251.40504002 8.66952206 250.6870322 7.89389706 249.94726658 C3.12939126 245.35891328 -0.69451001 240.95155948 -3.82485294 235.12304783 C-4.17032169 234.51074314 -4.51579044 233.89843845 -4.87172794 233.26757908 C-10.94321275 221.94192473 -13.67439921 209.94120178 -12.82485294 197.12304783 C-10.84059104 195.13878593 -7.04341998 195.70182494 -4.32485294 195.56054783 C-3.53530216 195.51881443 -2.74575138 195.47708103 -1.93227482 195.43408298 C15.10980901 194.63298733 32.16211125 194.90627898 49.17514706 196.12304783 C49.81864969 197.39308409 50.46019835 198.66411051 51.10092831 199.93554783 C51.45840145 200.64324314 51.8158746 201.35093845 52.18418026 202.08007908 C52.98333767 203.72761523 53.68870342 205.42045337 54.36264706 207.12304783 C58.62730411 214.18179054 65.12217052 219.02400462 72.95249081 221.50195408 C82.6874297 223.3781423 94.08746277 223.47868349 103.17514706 219.12304783 C103.88026424 218.59324314 104.58538143 218.06343845 105.31186581 217.51757908 C107.17514706 216.12304783 107.17514706 216.12304783 109.17514706 216.12304783 C109.50514706 215.13304783 109.83514706 214.14304783 110.17514706 213.12304783 C110.83514706 213.12304783 111.49514706 213.12304783 112.17514706 213.12304783 C112.59086971 212.28580173 112.59086971 212.28580173 113.01499081 211.43164158 C113.80729157 209.85504308 114.61260229 208.28493266 115.42905331 206.72070408 C115.86088924 205.88410252 116.29272518 205.04750095 116.73764706 204.18554783 C117.17206112 203.35152439 117.60647518 202.51750095 118.05405331 201.65820408 C120.48533626 196.16028548 120.35804648 190.72229383 120.36264706 184.81054783 C120.37489315 183.99392673 120.38713924 183.17730564 120.39975643 182.33593845 C120.42270706 172.73492668 118.22312181 163.98061753 111.98764706 156.49804783 C103.09526108 148.98892189 93.54687092 144.27534392 81.58920956 144.77539158 C68.28250933 146.69172867 60.28581416 152.22251345 51.83920956 162.26757908 C49.80719959 164.53331789 48.86671442 165.08165282 45.82884884 165.26348972 C44.35683262 165.27373173 44.35683262 165.27373173 42.8550787 165.28418064 C41.74375072 165.29378819 40.63242275 165.30339573 39.48741817 165.31329441 C38.28222027 165.31754429 37.07702236 165.32179417 35.83530331 165.32617283 C34.60226971 165.3318729 33.36923611 165.33757298 32.09883785 165.34344578 C29.4869946 165.35290512 26.87513937 165.35943345 24.26328182 165.3632822 C21.58117823 165.36768003 18.89939397 165.38161939 16.21738338 165.40429783 C12.3607566 165.43465563 8.50453603 165.4453184 4.64780331 165.45117283 C3.44462963 165.46351963 2.24145596 165.47586643 1.00182247 165.48858738 C-0.11265766 165.48558628 -1.22713779 165.48258518 -2.37539005 165.47949314 C-3.35752979 165.48313877 -4.33966953 165.4867844 -5.35157108 165.4905405 C-7.82485294 165.12304783 -7.82485294 165.12304783 -9.66994572 164.10336399 C-11.53167613 160.9110601 -10.99434614 157.64542712 -10.75283146 154.08154392 C-10.70983103 153.25535683 -10.6668306 152.42916973 -10.62252712 151.57794666 C-10.52665361 149.76782505 -10.42364161 147.95807117 -10.31449032 146.14870167 C-10.07667611 142.19881728 -9.87367259 138.24734985 -9.66826439 134.2956686 C-9.55811164 132.18309515 -9.44616632 130.07061451 -9.33255386 127.9582243 C-8.74814671 117.01873089 -8.32166412 106.07472387 -7.91418934 95.12741947 C-7.78930128 91.77650072 -7.66191046 88.42568601 -7.53374577 85.07489109 C-7.18587694 75.97289585 -6.84230778 66.87073947 -6.49941349 57.76855564 C-6.28508429 52.08322214 -6.06848286 46.39797859 -5.85058117 40.71278095 C-5.73083557 37.57011091 -5.61372762 34.42735006 -5.49671268 31.28457737 C-4.31910819 0.18813612 -4.31910819 0.18813612 0 0 Z " fill="#FDFDFD" transform="translate(1413.8248529434204,295.8769521713257)"/>
<path d="M0 0 C7.42191673 6.18307048 13.74749602 12.78372236 18.59765625 21.1640625 C18.96375 21.78539062 19.32984375 22.40671875 19.70703125 23.046875 C25.37134333 33.46049491 27.30767033 44.29791425 27.16015625 56.0390625 C27.15064941 57.26415527 27.14114258 58.48924805 27.13134766 59.75146484 C26.91639253 69.1113318 25.76972703 76.74266037 21.59765625 85.1640625 C21.15164063 86.07542969 20.705625 86.98679687 20.24609375 87.92578125 C12.9564276 101.2222952 1.9834871 109.66705245 -11.40234375 116.1640625 C-10.36335937 116.63714844 -9.324375 117.11023438 -8.25390625 117.59765625 C0.59978447 121.7497832 7.69287896 126.09488575 14.59765625 133.1640625 C15.48453125 133.9684375 16.37140625 134.7728125 17.28515625 135.6015625 C30.19201416 149.9037564 34.53582559 166.41555373 33.9375 185.359375 C32.78283934 205.81453792 24.15462596 222.12273476 9.59765625 236.1640625 C8.58058594 237.19273437 8.58058594 237.19273437 7.54296875 238.2421875 C-11.60406869 256.48528755 -39.9226014 261.35203829 -65.26586914 261.34936523 C-67.5674113 261.35154129 -69.86846474 261.36972073 -72.16992188 261.38867188 C-84.25740672 261.43577821 -96.14121698 260.56390172 -107.77734375 257.0390625 C-108.48157471 256.82588379 -109.18580566 256.61270508 -109.91137695 256.39306641 C-132.94815504 249.05396132 -151.04055866 234.36805863 -162.46728516 213.04101562 C-168.02426109 201.88643835 -170.37532228 187.56953872 -169.40234375 175.1640625 C-166.71462837 172.47634712 -165.36447478 172.91084393 -161.60742188 172.90527344 C-160.39276245 172.89896912 -159.17810303 172.89266479 -157.92663574 172.88616943 C-155.95007996 172.89224213 -155.95007996 172.89224213 -153.93359375 172.8984375 C-152.57360769 172.89709074 -151.2136221 172.89515011 -149.8536377 172.89263916 C-147.00215068 172.88968841 -144.15078888 172.89398386 -141.29931641 172.90332031 C-137.64051598 172.91471496 -133.98200895 172.90815521 -130.3232193 172.89617538 C-127.51456483 172.88895538 -124.70598016 172.89124533 -121.89732361 172.89643097 C-119.89089773 172.89841789 -117.88446915 172.89233387 -115.87805176 172.88616943 C-114.66339233 172.89247375 -113.44873291 172.89877808 -112.19726562 172.90527344 C-111.12408081 172.90686462 -110.050896 172.90845581 -108.94519043 172.91009521 C-106.40234375 173.1640625 -106.40234375 173.1640625 -104.40234375 175.1640625 C-103.49892006 178.28764075 -102.72701825 181.41268316 -101.99023438 184.578125 C-101.03563684 188.44215327 -99.94173493 191.1110053 -97.40234375 194.1640625 C-97.40234375 194.8240625 -97.40234375 195.4840625 -97.40234375 196.1640625 C-96.86609375 196.4115625 -96.32984375 196.6590625 -95.77734375 196.9140625 C-93.40234375 198.1640625 -93.40234375 198.1640625 -90.77734375 200.1015625 C-80.93792738 206.11453917 -69.30865015 207.15776343 -58.15234375 204.9765625 C-48.38343972 202.59626725 -42.45888835 199.37961985 -36.21484375 191.3515625 C-32.02584168 183.98469679 -31.41190778 176.42544154 -33.52734375 168.2265625 C-35.90707911 160.94346546 -40.08253015 155.00672076 -46.87109375 151.2578125 C-58.54875132 146.21191108 -70.22154068 145.66233916 -82.79248047 145.49121094 C-83.87803223 145.47348633 -84.96358398 145.45576172 -86.08203125 145.4375 C-87.05897949 145.43153809 -88.03592773 145.42557617 -89.04248047 145.41943359 C-91.40234375 145.1640625 -91.40234375 145.1640625 -93.40234375 143.1640625 C-93.65631104 141.11474609 -93.65631104 141.11474609 -93.66113281 138.5625 C-93.66743713 137.60811035 -93.67374146 136.6537207 -93.68023682 135.67041016 C-93.67618835 134.63706543 -93.67213989 133.6037207 -93.66796875 132.5390625 C-93.6698822 131.48122559 -93.67179565 130.42338867 -93.67376709 129.33349609 C-93.67512977 127.09407311 -93.67142757 124.85464224 -93.66308594 122.61523438 C-93.65238777 119.17820573 -93.66297863 115.7416998 -93.67578125 112.3046875 C-93.67445967 110.13281134 -93.67189731 107.96093551 -93.66796875 105.7890625 C-93.67201721 104.75571777 -93.67606567 103.72237305 -93.68023682 102.65771484 C-93.67078033 101.22613037 -93.67078033 101.22613037 -93.66113281 99.765625 C-93.65954163 98.92338379 -93.65795044 98.08114258 -93.65631104 97.21337891 C-93.40234375 95.1640625 -93.40234375 95.1640625 -91.40234375 93.1640625 C-89.13085938 92.87695312 -89.13085938 92.87695312 -86.30859375 92.8203125 C-84.76171875 92.77583984 -84.76171875 92.77583984 -83.18359375 92.73046875 C-82.10078125 92.70855469 -81.01796875 92.68664062 -79.90234375 92.6640625 C-66.47157419 92.3842548 -54.38871222 91.62784198 -44.52734375 81.5390625 C-39.49822499 75.30529436 -38.02936386 68.30596126 -38.52734375 60.4140625 C-39.42011211 53.67510132 -41.50422899 48.06217726 -46.40234375 43.1640625 C-55.92097501 36.78750369 -65.04322552 35.20018458 -76.40234375 36.1640625 C-86.27203392 38.11926803 -92.80877144 42.34111018 -98.77734375 50.3515625 C-100.92865123 54.48433739 -101.34775919 59.01606355 -101.91015625 63.58984375 C-102.40234375 66.1640625 -102.40234375 66.1640625 -104.40234375 68.1640625 C-107.4296875 68.4987793 -107.4296875 68.4987793 -111.33984375 68.61328125 C-112.04428116 68.6355629 -112.74871857 68.65784454 -113.47450256 68.68080139 C-115.78363345 68.74933663 -118.0927375 68.80175615 -120.40234375 68.8515625 C-121.18479462 68.87085815 -121.96724548 68.89015381 -122.77340698 68.91003418 C-133.34297984 69.16596456 -143.8954792 69.23923873 -154.46484375 68.9140625 C-155.55087891 68.88787842 -156.63691406 68.86169434 -157.75585938 68.8347168 C-158.74392578 68.79386963 -159.73199219 68.75302246 -160.75 68.7109375 C-162.0340271 68.66211426 -162.0340271 68.66211426 -163.34399414 68.61230469 C-165.40234375 68.1640625 -165.40234375 68.1640625 -167.40234375 65.1640625 C-167.29885717 62.44680055 -167.0814921 59.909177 -166.71484375 57.2265625 C-166.61381348 56.46093994 -166.5127832 55.69531738 -166.40869141 54.90649414 C-163.24126299 32.05644509 -152.94454766 14.04113467 -135.1015625 -0.7421875 C-97.04349501 -28.8859685 -37.65295059 -28.72493138 0 0 Z " fill="#FDFCFD" transform="translate(751.40234375,312.8359375)"/>
<path d="M0 0 C1.27472168 -0.00630432 2.54944336 -0.01260864 3.86279297 -0.019104 C5.26009254 -0.01552433 6.65739087 -0.01142239 8.0546875 -0.00683594 C9.48193427 -0.00818265 10.90918059 -0.01012323 12.33642578 -0.01263428 C15.32914595 -0.01558528 18.32174681 -0.01128876 21.31445312 -0.00195312 C25.15485123 0.00944151 28.99496982 0.00288189 32.83535767 -0.00909805 C35.7829805 -0.01631737 38.73053681 -0.01402842 41.67816162 -0.00884247 C43.09438103 -0.00750616 44.51060644 -0.00915303 45.92681885 -0.01380157 C47.90433643 -0.01886768 49.88187512 -0.00978001 51.859375 0 C53.54909424 0.00238678 53.54909424 0.00238678 55.27294922 0.00482178 C57.9296875 0.25878906 57.9296875 0.25878906 59.9296875 2.25878906 C60.17808449 4.2256099 60.17808449 4.2256099 60.17578316 6.69034004 C60.17976525 7.62787215 60.18374735 8.56540426 60.18785012 9.53134644 C60.17911159 11.08676913 60.17911159 11.08676913 60.17019653 12.6736145 C60.17190538 13.76971538 60.17361423 14.86581627 60.17537487 15.99513233 C60.17868669 19.69262078 60.16763822 23.38993043 60.15673828 27.08740234 C60.15617453 29.72806204 60.15640181 32.36871056 60.15762329 35.0093689 C60.15867354 40.70718383 60.15238237 46.40495306 60.14114761 52.1027565 C60.12491447 60.34088322 60.11968685 68.57898778 60.11717163 76.81712876 C60.11279109 90.18197208 60.09947226 103.54679102 60.08056641 116.91162109 C60.06221689 129.89664589 60.04805585 142.88166408 60.03955078 155.86669922 C60.03902533 156.66668859 60.03849989 157.46667795 60.03795852 158.29090942 C60.0353485 162.30409921 60.03282107 166.31728904 60.03033471 170.33047891 C60.00959102 203.6399333 59.97435574 236.9493582 59.9296875 270.25878906 C59.2696875 270.25878906 58.6096875 270.25878906 57.9296875 270.25878906 C57.5996875 182.14878906 57.2696875 94.03878906 56.9296875 3.25878906 C25.39934594 0.49067714 25.39934594 0.49067714 -5.0703125 4.25878906 C-5.4003125 58.37878906 -5.7303125 112.49878906 -6.0703125 168.25878906 C-7.3903125 166.93878906 -8.7103125 165.61878906 -10.0703125 164.25878906 C-10.0703125 163.59878906 -10.0703125 162.93878906 -10.0703125 162.25878906 C-9.4103125 162.25878906 -8.7503125 162.25878906 -8.0703125 162.25878906 C-8.07307788 161.02465869 -8.07307788 161.02465869 -8.07589912 159.76559639 C-8.12001866 139.76980256 -8.15314004 119.7740171 -8.17393684 99.77818489 C-8.18426067 90.10845316 -8.19834207 80.43875388 -8.22119141 70.76904297 C-8.24109149 62.34344139 -8.25402088 53.9178633 -8.25848949 45.49223888 C-8.26110262 41.02866197 -8.26726744 36.56515226 -8.28177261 32.10159683 C-8.29530317 27.90411787 -8.29954437 23.70673408 -8.29652786 19.50923538 C-8.29708006 17.96524031 -8.3010844 16.4212422 -8.30872345 14.87726593 C-8.3186141 12.77589763 -8.31630323 10.67489284 -8.31082153 8.57351685 C-8.31266512 7.39546541 -8.31450871 6.21741398 -8.31640816 5.00366402 C-7.82580658 -0.46835451 -4.6968402 0.00663443 0 0 Z " fill="#F1F1F1" transform="translate(1013.0703125,298.7412109375)"/>
<path d="M0 0 C8.17960554 -0.06943077 16.35908851 -0.12277566 24.53891563 -0.15543652 C28.33692183 -0.17111006 32.13472681 -0.19237859 35.93261719 -0.22631836 C39.59602467 -0.25885241 43.25923831 -0.27684029 46.92277908 -0.28463173 C48.3222827 -0.29018603 49.72177539 -0.30103199 51.12119675 -0.31719017 C53.07727511 -0.33888273 55.03354748 -0.3402247 56.98974609 -0.34057617 C58.1044931 -0.34723801 59.21924011 -0.35389984 60.36776733 -0.36076355 C61.6707225 -0.18218559 61.6707225 -0.18218559 63 0 C65.39208269 3.58812403 65.2749947 6.12994183 65.24050903 10.27018738 C65.24221788 11.01595718 65.24392673 11.76172699 65.24568737 12.53009588 C65.24898896 15.03602994 65.23796765 17.54169791 65.22705078 20.04760742 C65.22648681 21.84113051 65.22680295 23.63465406 65.22793579 25.42817688 C65.22851086 30.30391704 65.21673161 35.17955928 65.20278788 40.05527663 C65.1903062 45.14819963 65.18911204 50.24112474 65.18673706 55.33406067 C65.18051474 64.98129196 65.16409377 74.62847806 65.14403808 84.27568942 C65.12170245 95.25740588 65.11069153 106.23912447 65.10064721 117.22085798 C65.07972819 139.8139304 65.04453763 162.40696267 65 185 C61.39121067 179.586816 61.87510718 172.85338014 61.87974548 166.50817871 C61.87889106 165.79897231 61.87803663 165.0897659 61.87715632 164.35906839 C61.87552263 162.00693051 61.88098795 159.65486558 61.88647461 157.30273438 C61.88675696 155.60699465 61.8865978 153.91125479 61.8860321 152.21551514 C61.88574601 147.62934748 61.89161231 143.04320616 61.89860606 138.4570446 C61.90487095 133.6577658 61.90544588 128.85848636 61.90663147 124.0592041 C61.90973555 114.97881071 61.91793648 105.8984294 61.92798096 96.81804132 C61.93917078 86.47706267 61.94465977 76.13608342 61.94967639 65.79510021 C61.96011988 44.53005857 61.97845387 23.26503349 62 2 C41.21 2 20.42 2 -1 2 C-0.67 1.34 -0.34 0.68 0 0 Z " fill="#F0F0F0" transform="translate(1128,299)"/>
<path d="M0 0 C1.2748397 0.00092179 2.54967939 0.00184359 3.8631506 0.00279331 C4.57045958 0.00193889 5.27776856 0.00108446 6.00651115 0.00020415 C8.39420988 -0.00145272 10.78183949 0.00407406 13.16953182 0.00952244 C14.87409113 0.00980429 16.57865056 0.00964661 18.2832098 0.00907993 C22.92557505 0.00879189 27.5679147 0.01468976 32.21027398 0.02165389 C37.05630601 0.02788624 41.90233857 0.02849113 46.74837399 0.0296793 C55.93170669 0.03279297 65.11502756 0.04100683 74.29835504 0.05102879 C84.75041476 0.06218883 95.20247504 0.0677001 105.65453923 0.07272422 C127.16141512 0.08318941 148.66828035 0.10078954 170.17514706 0.12304783 C171.17227276 3.11442494 171.26744532 4.94055776 171.19687557 8.05346775 C171.17677929 9.05427876 171.15668301 10.05508976 171.13597775 11.08622837 C171.10894268 12.16443348 171.08190762 13.24263859 171.05405331 14.35351658 C171.03044231 15.45907398 171.00683132 16.56463139 170.98250484 17.70369053 C170.90585009 21.23943966 170.82183317 24.77497077 170.73764706 28.31054783 C170.68442821 30.7057194 170.6316878 33.10090166 170.57944393 35.4960947 C170.45023245 41.37188103 170.31497387 47.24750506 170.17514706 53.12304783 C169.84514706 53.12304783 169.51514706 53.12304783 169.17514706 53.12304783 C169.17514706 36.29304783 169.17514706 19.46304783 169.17514706 2.12304783 C112.74514706 2.45304783 56.31514706 2.78304783 -1.82485294 3.12304783 C-1.82485294 9.72304783 -1.82485294 16.32304783 -1.82485294 23.12304783 C-1.95488483 26.88468463 -2.09720814 30.6199849 -2.32485294 34.37304783 C-2.37254826 35.2367197 -2.42024357 36.10039158 -2.46938419 36.99023533 C-2.58297026 39.03478448 -2.7030781 41.07897006 -2.82485294 43.12304783 C-3.15485294 43.12304783 -3.48485294 43.12304783 -3.82485294 43.12304783 C-3.84949868 37.15991616 -3.86768694 31.19681388 -3.87978458 25.23364353 C-3.88482572 23.20336484 -3.89165851 21.17308981 -3.9002924 19.14282322 C-3.91236762 16.23127436 -3.91808329 13.31977333 -3.92250919 10.40820408 C-3.92767048 9.49466663 -3.93283176 8.58112919 -3.93814945 7.63990879 C-3.93834462 5.46729356 -3.88697099 3.29477487 -3.82485294 1.12304783 C-2.82485294 0.12304783 -2.82485294 0.12304783 0 0 Z " fill="#E2E1E1" transform="translate(1413.8248529434204,295.8769521713257)"/>
<path d="M0 0 C11.16761572 9.30354753 20.8554154 20.8188059 24.59765625 35.1640625 C24.72265625 38.5390625 24.72265625 38.5390625 24.59765625 41.1640625 C22.58613932 38.14678711 21.56453347 35.50476246 20.34765625 32.1015625 C12.52155841 11.54379529 -2.02060231 -0.0013847 -21.5234375 -8.99902344 C-31.1963966 -13.30761281 -40.95349223 -15.90480935 -51.46484375 -16.9609375 C-52.69895996 -17.08722534 -52.69895996 -17.08722534 -53.95800781 -17.21606445 C-63.73858328 -18.14894308 -73.70258418 -18.69308659 -83.40234375 -16.8359375 C-84.06234375 -16.1759375 -84.72234375 -15.5159375 -85.40234375 -14.8359375 C-86.25054688 -14.99964844 -87.09875 -15.16335938 -87.97265625 -15.33203125 C-92.4783118 -15.99402392 -95.92851998 -15.08259315 -100.27734375 -13.8984375 C-101.1079834 -13.67534912 -101.93862305 -13.45226074 -102.79443359 -13.22241211 C-114.67097489 -9.8360694 -125.41090329 -4.0481497 -135.40234375 3.1640625 C-136.39234375 3.8240625 -137.38234375 4.4840625 -138.40234375 5.1640625 C-138.0422196 2.53458457 -137.62738509 1.37838759 -135.6796875 -0.4765625 C-96.25667169 -27.59222613 -38.90869569 -29.68292249 0 0 Z " fill="#EEEDED" transform="translate(751.40234375,312.8359375)"/>
<path d="M0 0 C2.29687402 0.00502563 4.59374911 0.00958665 6.890625 0.01367188 C12.4687736 0.02459189 18.0468817 0.04124553 23.625 0.0625 C25.43475823 4.71327683 25.87154585 8.57455408 25.8611908 13.55213928 C25.86234392 14.28565548 25.86349705 15.01917168 25.86468512 15.77491564 C25.86597193 18.22253349 25.85282733 20.66985241 25.83959961 23.11743164 C25.83735717 24.87732359 25.83593368 26.63721674 25.83526611 28.39710999 C25.83046182 33.17493563 25.81235463 37.95262048 25.79051661 42.73039556 C25.77733789 45.72398666 25.76684672 48.71757509 25.75726509 51.71117973 C25.72346102 62.18097515 25.67822621 72.65065628 25.62329102 83.12036133 C25.57264975 92.83352208 25.54782442 102.54651573 25.53510088 112.25979334 C25.52288922 120.62885839 25.4914826 128.99771696 25.4458161 137.36666578 C25.41897327 142.35114035 25.39961255 147.33534922 25.39997673 152.31990242 C25.38524813 205.67694722 25.38524813 205.67694722 11.625 226.0625 C10.965 226.0625 10.305 226.0625 9.625 226.0625 C10.70783704 223.31931283 11.82470874 220.59917573 12.9921875 217.890625 C15.83302204 211.14916273 18.23702577 204.49725269 19.9375 197.375 C20.09653809 196.72370117 20.25557617 196.07240234 20.41943359 195.40136719 C23.04837216 183.69984304 22.7662678 171.65060883 22.73852539 159.72753906 C22.73824276 158.01150514 22.73840273 156.2954711 22.7389679 154.57943726 C22.73925291 149.95631758 22.73340429 145.33322426 22.72639394 140.71011066 C22.72011087 135.86547799 22.7195527 131.02084461 22.71836853 126.1762085 C22.71526975 117.01803321 22.70707608 107.85986997 22.69701904 98.70169997 C22.68581261 88.26873187 22.68033607 77.83576317 22.67532361 67.40279055 C22.66489215 45.95601883 22.64656487 24.50926361 22.625 3.0625 C2.165 2.7325 -18.295 2.4025 -39.375 2.0625 C-39.375 1.7325 -39.375 1.4025 -39.375 1.0625 C-26.26627344 -0.24542356 -13.15750685 -0.0503137 0 0 Z " fill="#E9E9E9" transform="translate(1328.375,298.9375)"/>
<path d="M0 0 C0.33 0 0.66 0 1 0 C1.02483806 4.3050091 1.04292512 8.60997951 1.05493164 12.91503906 C1.05994045 14.37761157 1.06674938 15.84017911 1.07543945 17.30273438 C1.08765698 19.41277291 1.09326295 21.52274487 1.09765625 23.6328125 C1.10289307 24.90012207 1.10812988 26.16743164 1.11352539 27.47314453 C1 31 1 31 0.50949097 33.83227539 C0.0006058 36.99623345 -0.18280039 40.00854681 -0.26538086 43.21044922 C-0.29889145 44.41966034 -0.33240204 45.62887146 -0.3669281 46.87472534 C-0.39924026 48.17161285 -0.43155243 49.46850037 -0.46484375 50.8046875 C-0.50288346 52.17027386 -0.54151433 53.53584386 -0.58070374 54.90139771 C-0.74532693 60.66939836 -0.90069894 66.43762647 -1.04956055 72.20605469 C-1.14134928 75.74695171 -1.24091736 79.28756763 -1.34482002 82.82812881 C-1.40036937 84.79720106 -1.44740442 86.76650783 -1.49412537 88.73580933 C-1.76851929 98.02178798 -2.83473929 106.6779143 -4 116 C17.78 116.495 17.78 116.495 40 117 C40 117.33 40 117.66 40 118 C25.15 118 10.3 118 -5 118 C-6.57369976 114.85260048 -5.91851769 111.54875655 -5.73046875 108.11328125 C-5.69008484 107.28855316 -5.64970093 106.46382507 -5.60809326 105.61410522 C-5.51924199 103.8040999 -5.42807624 101.99420712 -5.33493042 100.18441772 C-5.08061065 95.23031496 -4.84453039 90.2753569 -4.609375 85.3203125 C-4.55897568 84.26247055 -4.50857635 83.2046286 -4.45664978 82.11473083 C-3.73218786 66.63126955 -3.22499838 51.13890892 -2.69799805 35.64770508 C-1.57792112 3.15584224 -1.57792112 3.15584224 0 0 Z " fill="#F0F0F0" transform="translate(1409,342)"/>
<path d="M0 0 C3.03823317 2.86202485 5.35532584 5.80356658 7.64453125 9.2890625 C8.32193359 10.31386719 8.99933594 11.33867187 9.69726562 12.39453125 C10.39529297 13.46058594 11.09332031 14.52664063 11.8125 15.625 C16.77253121 23.1605216 21.79789551 30.62948801 27 38 C28.28415594 39.84409053 29.56340346 41.69115281 30.83363342 43.54486084 C31.72635227 44.8340496 32.63197617 46.11441007 33.55108643 47.38491821 C36.15920691 51.04946643 38.33048156 54.55835954 40.07641602 58.71044922 C42.52419212 64.03635161 45.10883693 68.59431118 50 72 C59.42381437 74.92608607 69.8083031 74.08448349 79.56481934 73.69952393 C83.22472915 73.57470548 86.88517895 73.55377081 90.546875 73.5234375 C97.70169779 73.44917593 104.84936981 73.2616131 112 73 C112 73.66 112 74.32 112 75 C104.05474666 75.23246223 96.11092979 75.4097499 88.16310883 75.51812172 C84.47176922 75.57015727 80.78276733 75.64062604 77.09277344 75.75439453 C73.52638609 75.8636545 69.96223491 75.92295862 66.39430237 75.94877243 C64.3818673 75.97604592 62.37032409 76.05402495 60.35925293 76.13296509 C51.35793773 76.13844496 51.35793773 76.13844496 47.42897034 72.84454346 C45.38216561 70.31706588 43.66424333 67.7905664 42 65 C41.09921946 63.69322297 40.19321136 62.38999778 39.27734375 61.09375 C38.4928372 59.89881378 37.71285139 58.70089688 36.9375 57.5 C36.08554922 56.20122303 35.23268269 54.90304631 34.37890625 53.60546875 C33.9730127 52.98720215 33.56711914 52.36893555 33.14892578 51.73193359 C31.59911763 49.39569495 29.99329199 47.1017012 28.375 44.8125 C25.94341478 41.36869674 23.57977602 37.88852861 21.25 34.375 C18.00751271 29.48603569 14.70463996 24.64247427 11.375 19.8125 C10.43873924 18.45056403 9.50253954 17.08858609 8.56640625 15.7265625 C7.04041177 13.50723939 5.50701845 11.29411854 3.96484375 9.0859375 C3.41957031 8.29445313 2.87429688 7.50296875 2.3125 6.6875 C1.85488281 6.03136719 1.39726563 5.37523437 0.92578125 4.69921875 C0 3 0 3 0 0 Z " fill="#EEEEEE" transform="translate(957,496)"/>
<path d="M0 0 C0.87140625 0.51949219 1.7428125 1.03898438 2.640625 1.57421875 C34.32023745 20.23247989 71.94173791 23.79510863 107.56640625 15.1328125 C109.3870552 14.63432974 111.20191944 14.11300114 113.00390625 13.55078125 C115 13 115 13 118 13 C118 13.66 118 14.32 118 15 C115.62925875 15.8066678 113.25452308 16.59497218 110.875 17.375 C110.22917969 17.59671875 109.58335937 17.8184375 108.91796875 18.046875 C97.14493318 21.85909604 85.02190838 22.32985739 72.75927734 22.26074219 C70.50200561 22.25000954 68.2455293 22.2607151 65.98828125 22.2734375 C53.9950127 22.28602774 42.16686184 21.36601147 30.625 17.875 C29.92656982 17.66617188 29.22813965 17.45734375 28.50854492 17.2421875 C23.23497912 15.57641506 18.26655193 13.45102499 13.3125 11 C12.66555176 10.68015137 12.01860352 10.36030273 11.35205078 10.03076172 C7.08256743 7.8126885 3.5220669 5.28942654 0 2 C0 1.34 0 0.68 0 0 Z " fill="#E8E8E8" transform="translate(613,552)"/>
<path d="M0 0 C-0.33 0.99 -0.66 1.98 -1 3 C-3.51565873 4.00925832 -5.90578525 4.82029235 -8.5 5.5625 C-9.18320313 5.77068359 -9.86640625 5.97886719 -10.5703125 6.19335938 C-18.7947799 8.64991846 -26.57264989 10.3117127 -35.1796875 10.3359375 C-36.45804977 10.3459227 -36.45804977 10.3459227 -37.76223755 10.35610962 C-39.55891793 10.36617282 -41.35563521 10.37092862 -43.15234375 10.37060547 C-45.83400193 10.37493383 -48.51394932 10.41119574 -51.1953125 10.44921875 C-63.57935885 10.529296 -79.00243112 10.48481108 -90 4 C-90 3.34 -90 2.68 -90 2 C-89.4438501 2.12552246 -88.8877002 2.25104492 -88.31469727 2.38037109 C-85.87785042 2.92669851 -83.4392963 3.46471925 -81 4 C-80.33726074 4.14727539 -79.67452148 4.29455078 -78.99169922 4.44628906 C-55.8156207 9.38496562 -27.97051249 9.90521864 -5.59375 1.36328125 C-2 0 -2 0 0 0 Z " fill="#EAEBEA" transform="translate(1546,563)"/>
<path d="M0 0 C0.74507812 0.02239746 1.49015625 0.04479492 2.2578125 0.06787109 C4.30859375 0.17578125 4.30859375 0.17578125 7.5625 0.6875 C9.7144437 3.91541555 9.76336443 4.97150809 9.5625 8.6875 C8.9025 8.3575 8.2425 8.0275 7.5625 7.6875 C7.0675 5.2125 7.0675 5.2125 6.5625 2.6875 C-12.9075 3.0175 -32.3775 3.3475 -52.4375 3.6875 C-52.4375 7.6475 -52.4375 11.6075 -52.4375 15.6875 C-54.34901056 11.86447889 -54.6908646 10.55366705 -54.625 6.5 C-54.61855469 5.61957031 -54.61210938 4.73914063 -54.60546875 3.83203125 C-54.4375 1.6875 -54.4375 1.6875 -53.4375 0.6875 C-50.93009466 0.43613882 -48.4523612 0.25569103 -45.9375 0.125 C-45.14794922 0.0832666 -44.35839844 0.0415332 -43.54492188 -0.00146484 C-29.05369261 -0.68265271 -14.49331587 -0.60388816 0 0 Z " fill="#EFEFF0" transform="translate(1455.4375,491.3125)"/>
<path d="M0 0 C0.66 0 1.32 0 2 0 C0.5127708 4.44158992 -2.90237556 6.1537555 -6.75 8.375 C-7.7565564 8.96317505 -7.7565564 8.96317505 -8.78344727 9.56323242 C-26.10275434 19.47827651 -44.08817146 24.37412621 -64 24 C-64 23.34 -64 22.68 -64 22 C-63.4423999 21.93006836 -62.8847998 21.86013672 -62.31030273 21.78808594 C-41.6609206 19.14937701 -15.5152058 15.5152058 0 0 Z " fill="#F0F0F0" transform="translate(1314,550)"/>
<path d="M0 0 C0.66 0 1.32 0 2 0 C2.53625 0.845625 3.0725 1.69125 3.625 2.5625 C8.01136694 9.35895866 14.06544099 13.86324138 21.7421875 16.34375 C31.45550927 18.30039036 42.92574308 18.34920006 52 14 C53.05767578 13.20529297 53.05767578 13.20529297 54.13671875 12.39453125 C56 11 56 11 58 11 C58.33 10.01 58.66 9.02 59 8 C59.66 8 60.32 8 61 8 C61.28875 7.401875 61.5775 6.80375 61.875 6.1875 C63 4 63 4 65 1 C65.99 1.495 65.99 1.495 67 2 C62.20035064 10.19940099 55.50565251 15.71790063 46.60546875 19.11328125 C36.1508481 21.68446098 24.40821249 21.51354191 14.66015625 16.6875 C7.76503518 12.3135025 2.16654002 8.09540492 0 0 Z " fill="#EAE9EA" transform="translate(1465,501)"/>
<path d="M0 0 C7.7884635 -0.04629055 15.57689492 -0.08185242 23.36546135 -0.10362434 C26.98180873 -0.11407249 30.59806216 -0.12825032 34.21435547 -0.15087891 C37.70268811 -0.1725708 41.19093024 -0.18456085 44.6793251 -0.18975449 C46.66139971 -0.19526169 48.64343779 -0.21088034 50.62545776 -0.22659302 C51.82655182 -0.22674408 53.02764587 -0.22689514 54.26513672 -0.22705078 C55.32658905 -0.231492 56.38804138 -0.23593323 57.48165894 -0.24050903 C60 0 60 0 62 2 C63.14222874 5.99780058 63.08107875 9.8649837 63 14 C61 12 61 12 60 9 C60 6.69 60 4.38 60 2 C40.2 2 20.4 2 0 2 C0 1.34 0 0.68 0 0 Z " fill="#EEEDED" transform="translate(585,486)"/>
<path d="M0 0 C0.495 1.485 0.495 1.485 1 3 C-0.45459431 4.64913882 -1.91379257 6.29421782 -3.375 7.9375 C-4.18710938 8.85402344 -4.99921875 9.77054687 -5.8359375 10.71484375 C-8.18931068 13.19990388 -8.98799152 13.94857413 -12.3664856 14.12025452 C-13.35687836 14.11803391 -14.34727112 14.11581329 -15.36767578 14.11352539 C-16.48868683 14.11344986 -17.60969788 14.11337433 -18.76467896 14.11329651 C-19.97928802 14.10813522 -21.19389709 14.10297394 -22.4453125 14.09765625 C-23.68546112 14.0962413 -24.92560974 14.09482635 -26.20333862 14.09336853 C-29.50118133 14.08871096 -32.79897546 14.07972439 -36.09680176 14.06866455 C-39.46166387 14.05843731 -42.82653308 14.05386809 -46.19140625 14.04882812 C-52.79428993 14.03778269 -59.39714099 14.02103247 -66 14 C-66 13.67 -66 13.34 -66 13 C-60.555 12.505 -60.555 12.505 -55 12 C-55 11.67 -55 11.34 -55 11 C-54.43703217 11.01776489 -53.87406433 11.03552979 -53.29403687 11.05383301 C-47.42186207 11.23115201 -41.55044981 11.35160835 -35.67626953 11.43945312 C-33.48585106 11.47962646 -31.29564635 11.53417819 -29.10595703 11.60351562 C-25.95291433 11.70084059 -22.80271068 11.74598674 -19.6484375 11.78125 C-18.67321136 11.82254028 -17.69798523 11.86383057 -16.69320679 11.90637207 C-11.43100393 11.95502081 -11.43100393 11.95502081 -7.11212158 9.27124023 C-5.50474691 7.18551032 -5.50474691 7.18551032 -4.23110962 5.01550293 C-3.01266423 3.02073316 -1.70935841 1.58069117 0 0 Z " fill="#F6F6F6" transform="translate(1472,447)"/>
<path d="M0 0 C0.87140625 0.51949219 1.7428125 1.03898438 2.640625 1.57421875 C19.93771933 11.7616446 37.14358253 16.83177051 57 19 C56.505 20.485 56.505 20.485 56 22 C36.33606137 20.35108399 14.91165904 15.92671074 0 2 C0 1.34 0 0.68 0 0 Z " fill="#F0EFEE" transform="translate(613,552)"/>
<path d="M0 0 C20.79 0 41.58 0 63 0 C63.495 1.98 63.495 1.98 64 4 C63.34 4 62.68 4 62 4 C62 3.34 62 2.68 62 2 C41.21 2 20.42 2 -1 2 C-0.67 1.34 -0.34 0.68 0 0 Z " fill="#EDE9E9" transform="translate(1128,299)"/>
<path d="M0 0 C0.33 0 0.66 0 1 0 C2.53703977 18.14560837 -6.17091043 36.76341704 -17.32568359 50.65039062 C-25.50582826 60.30349696 -25.50582826 60.30349696 -30 63 C-30.99 62.67 -31.98 62.34 -33 62 C-32.20335937 61.29875 -31.40671875 60.5975 -30.5859375 59.875 C-24.7278955 54.65707517 -19.2896802 49.62950576 -15 43 C-14.51273438 42.30132813 -14.02546875 41.60265625 -13.5234375 40.8828125 C-5.48484987 28.63942518 -2.19230671 14.28845516 0 0 Z " fill="#EEEEEE" transform="translate(1597,490)"/>
<path d="M0 0 C3.54858304 -0.46657296 4.92148747 -0.04871438 8.015625 1.87109375 C9.10516838 2.71197157 10.1828634 3.56836262 11.25 4.4375 C11.81920166 4.8905249 12.38840332 5.3435498 12.97485352 5.81030273 C24.77654304 15.35312061 35.07908981 26.96984427 39 42 C39.125 45.375 39.125 45.375 39 48 C36.98848307 44.98272461 35.96687722 42.34069996 34.75 38.9375 C28.06618865 21.38031624 16.48283864 9.79084728 0 1 C0 0.67 0 0.34 0 0 Z " fill="#F1F1F1" transform="translate(737,306)"/>
<path d="M0 0 C11.22 0 22.44 0 34 0 C34.495 2.475 34.495 2.475 35 5 C34.34 5 33.68 5 33 5 C32.67 5.99 32.34 6.98 32 8 C31.505 6.515 31.505 6.515 31 5 C31.33 4.34 31.66 3.68 32 3 C31.01 3.33 30.02 3.66 29 4 C26.99024941 4.0609255 24.97835647 4.05842841 22.96801758 4.02172852 C21.72695755 4.00163223 20.48589752 3.98153595 19.20722961 3.96083069 C17.85299457 3.93363448 16.49876183 3.90632364 15.14453125 3.87890625 C13.75877157 3.85459962 12.3730037 3.83075633 10.98722839 3.80735779 C7.34244437 3.74457082 3.69780575 3.67548902 0.05316162 3.60510254 C-3.6669656 3.53437037 -7.3871958 3.46958264 -11.10742188 3.40429688 C-18.40506182 3.275354 -25.70255839 3.1397619 -33 3 C-33 2.67 -33 2.34 -33 2 C-22.11 1.67 -11.22 1.34 0 1 C0 0.67 0 0.34 0 0 Z " fill="#FE5622" transform="translate(531,299)"/>
<path d="M0 0 C0.66 0.33 1.32 0.66 2 1 C2 1.66 2 2.32 2 3 C1.24203125 2.86722656 0.4840625 2.73445313 -0.296875 2.59765625 C-13.78431393 0.50740836 -27.37576127 0.35083877 -41 0 C-30.2214646 -7.18569027 -11.89808724 -2.99782094 0 0 Z " fill="#EBEBEB" transform="translate(1539,391)"/>
<path d="M0 0 C2.37109375 2.140625 2.37109375 2.140625 4 4 C-0.03023783 3.28031467 -3.84195668 2.14899343 -7.75 0.9375 C-18.78434765 -2.19061725 -26.22962682 -1.08737154 -37 3 C-37.99 3.66 -38.98 4.32 -40 5 C-40.99 4.67 -41.98 4.34 -43 4 C-31.91868158 -7.08131842 -13.27441959 -6.0491026 0 0 Z " fill="#EEEEED" transform="translate(1517,442)"/>
<path d="M0 0 C3.88547224 0.7077626 7.58913172 1.75743248 11.375 2.875 C19.26584339 5.11381164 27.26540755 6.07766732 35.40576172 6.96044922 C36.36111816 7.0688916 37.31647461 7.17733398 38.30078125 7.2890625 C39.58722534 7.42368896 39.58722534 7.42368896 40.8996582 7.56103516 C43 8 43 8 45 10 C29.84775974 10.45305702 13.7893767 8.89468835 0 2 C0 1.34 0 0.68 0 0 Z " fill="#E4E4E4" transform="translate(1186,564)"/>
<path d="M0 0 C1.32 0.33 2.64 0.66 4 1 C4 1.66 4 2.32 4 3 C4.639375 3.2475 5.27875 3.495 5.9375 3.75 C9 5 9 5 10.82617188 5.93554688 C17.26499384 9.13379741 23.46186105 10.02238781 30.5625 10.75 C31.66658203 10.87503906 32.77066406 11.00007812 33.90820312 11.12890625 C36.60430865 11.43236401 39.30113031 11.72240563 42 12 C42 12.66 42 13.32 42 14 C27.91757792 14.71003809 14.48614959 13.02644368 3 4 C1.23046875 1.8125 1.23046875 1.8125 0 0 Z " fill="#EEEEEE" transform="translate(1203,502)"/>
<path d="M0 0 C0.495 1.485 0.495 1.485 1 3 C-6.80681007 12.3719435 -14.94190842 18.88051316 -26 24 C-26 24.66 -26 25.32 -26 26 C-27.98 26 -29.96 26 -32 26 C-32 25.01 -32 24.02 -32 23 C-30.453125 22.5359375 -30.453125 22.5359375 -28.875 22.0625 C-17.66769332 17.84727413 -6.75359722 9.93176062 0 0 Z " fill="#F0F0F0" transform="translate(766,405)"/>
<path d="M0 0 C0.33 0 0.66 0 1 0 C0.68337174 16.29196338 -4.10938928 30.85602344 -12 45 C-12.66 45 -13.32 45 -14 45 C-12.91716296 42.25681283 -11.80029126 39.53667573 -10.6328125 36.828125 C-6.92286025 28.02419685 -4.4245346 19.34837902 -2.44335938 10.01220703 C-1.70379769 6.65567213 -0.84843828 3.33049236 0 0 Z " fill="#F0F0F0" transform="translate(1352,480)"/>
<path d="M0 0 C1 3 1 3 1 7 C0.34 7 -0.32 7 -1 7 C-1.12375 7.53367187 -1.2475 8.06734375 -1.375 8.6171875 C-4.25070124 19.00565824 -10.6773385 25.84101019 -19.8984375 31.13671875 C-20.59195312 31.42160156 -21.28546875 31.70648438 -22 32 C-22.66 31.67 -23.32 31.34 -24 31 C-23.21496094 30.46632813 -22.42992187 29.93265625 -21.62109375 29.3828125 C-12.04692378 22.59278766 -5.38929286 15.83914826 -2.60546875 4.03125 C-2 2 -2 2 0 0 Z " fill="#EEEDEE" transform="translate(1286,479)"/>
<path d="M0 0 C0.33 0 0.66 0 1 0 C1.04952706 4.34161825 1.08577954 8.68308575 1.10986328 13.02490234 C1.11990591 14.50116847 1.13354265 15.97741479 1.15087891 17.45361328 C1.17520421 19.57850034 1.1865004 21.70312385 1.1953125 23.828125 C1.20578613 25.1059082 1.21625977 26.38369141 1.22705078 27.70019531 C1.01550278 30.77469299 0.63126908 32.43738352 -1 35 C-4.16663351 25.50009947 -2.06119684 11.89140267 -1 2 C-0.67 1.34 -0.34 0.68 0 0 Z " fill="#E6E6E6" transform="translate(1409,342)"/>
<path d="M0 0 C1.06798828 -0.01224609 2.13597656 -0.02449219 3.23632812 -0.03710938 C8.95428841 -0.04771784 13.79503528 0.24128948 19.1875 2.1875 C19.1875 2.5175 19.1875 2.8475 19.1875 3.1875 C7.3075 3.1875 -4.5725 3.1875 -16.8125 3.1875 C-15.8125 1.1875 -15.8125 1.1875 -14.0871582 0.57299805 C-9.4363893 -0.21519172 -4.70457045 0.0028087 0 0 Z " fill="#E7E6E6" transform="translate(682.8125,291.8125)"/>
<path d="M0 0 C0.66 0 1.32 0 2 0 C2.53625 0.845625 3.0725 1.69125 3.625 2.5625 C8.73558928 10.48110536 15.89616796 14.91059592 25 17 C29.66569649 17.56351298 34.30348494 17.86287547 39 18 C39 18.33 39 18.66 39 19 C27.27306192 20.61806113 18.99194299 20.14252217 9.10546875 12.87109375 C4.37514754 8.87163762 1.63112762 6.09480482 0 0 Z " fill="#F3F3F3" transform="translate(1465,501)"/>
<path d="M0 0 C0.33 0 0.66 0 1 0 C1.02898816 3.93748458 1.04679464 7.87494179 1.0625 11.8125 C1.07087891 12.93205078 1.07925781 14.05160156 1.08789062 15.20507812 C1.09111328 16.27822266 1.09433594 17.35136719 1.09765625 18.45703125 C1.10289307 19.44678955 1.10812988 20.43654785 1.11352539 21.45629883 C1 24 1 24 0 27 C-0.07051114 29.73865287 -0.09357765 32.45027588 -0.0625 35.1875 C-0.05798828 35.93708984 -0.05347656 36.68667969 -0.04882812 37.45898438 C-0.03706354 39.30602383 -0.01912865 41.15302213 0 43 C-0.66 43 -1.32 43 -2 43 C-2.10361905 31.88566168 -2.09937205 20.7916847 -1.5625 9.6875 C-1.52326416 8.82866211 -1.48402832 7.96982422 -1.44360352 7.08496094 C-1.12589222 1.12589222 -1.12589222 1.12589222 0 0 Z " fill="#EBECEC" transform="translate(1465,367)"/>
<path d="M0 0 C0.99 0 1.98 0 3 0 C11.61633075 9.91283193 14.47780786 23.28500189 14 36 C11.67349407 32.5102411 11.56007581 30.38765974 11.125 26.25 C10.36703079 20.40882454 9.282901 16.82176085 6 12 C5.33333333 10.33333333 4.66666667 8.66666667 4 7 C2.71939175 4.63236381 1.36520272 2.32084462 0 0 Z " fill="#EEEDED" transform="translate(770,453)"/>
<path d="M0 0 C5.92612181 -0.65008331 9.67571945 1.52337277 14.6875 4.3125 C15.44611328 4.71662109 16.20472656 5.12074219 16.98632812 5.53710938 C23.5170681 9.08203884 23.5170681 9.08203884 26 12 C26 12.66 26 13.32 26 14 C17.33333333 9.66666667 8.66666667 5.33333333 0 1 C0 0.67 0 0.34 0 0 Z " fill="#ECECEB" transform="translate(1542,394)"/>
<path d="M0 0 C-5.77423842 4.5795684 -10.77770763 4.18293289 -17.875 4.1875 C-18.86886719 4.19974609 -19.86273437 4.21199219 -20.88671875 4.22460938 C-21.84964844 4.22654297 -22.81257812 4.22847656 -23.8046875 4.23046875 C-24.68108887 4.23457764 -25.55749023 4.23868652 -26.46044922 4.24291992 C-29.27742573 3.97346293 -31.43318558 3.16298876 -34 2 C-34 1.67 -34 1.34 -34 1 C-32.82824219 1.09539063 -31.65648437 1.19078125 -30.44921875 1.2890625 C-22.49086369 1.87307641 -15.09638789 2.37770462 -7.26171875 0.47265625 C-4.78808859 -0.04428546 -2.52001228 -0.07582338 0 0 Z " fill="#EEEEEE" transform="translate(702,517)"/>
<path d="M0 0 C9.24 0 18.48 0 28 0 C28.33 1.32 28.66 2.64 29 4 C28.34 4 27.68 4 27 4 C27 3.34 27 2.68 27 2 C18.09 2 9.18 2 0 2 C0 1.34 0 0.68 0 0 Z " fill="#F2F2F2" transform="translate(1163,299)"/>
<path d="M0 0 C1.67666168 3.35332335 0.53482999 7.01064875 0.0625 10.625 C-0.03740234 11.42679687 -0.13730469 12.22859375 -0.24023438 13.0546875 C-0.4880418 15.03714691 -0.74331807 17.01867009 -1 19 C0.65 19 2.3 19 4 19 C4 19.66 4 20.32 4 21 C1.125 21.1875 1.125 21.1875 -2 21 C-4.67842286 16.98236571 -3.85119799 13.92907475 -3.25 9.375 C-3.16234375 8.58609375 -3.0746875 7.7971875 -2.984375 6.984375 C-2.73617246 4.97807111 -2.37634383 2.98625908 -2 1 C-1.34 0.67 -0.68 0.34 0 0 Z " fill="#F2EFEF" transform="translate(588,360)"/>
<path d="M0 0 C0.99 0 1.98 0 3 0 C4.60112558 2.16181936 5.99625596 4.26497899 7.375 6.5625 C8.17018517 7.85390663 8.96704461 9.1442839 9.765625 10.43359375 C10.14783203 11.05347168 10.53003906 11.67334961 10.92382812 12.31201172 C12.21608581 14.33893314 13.64430297 16.2325361 15.125 18.125 C17 21 17 21 16.6171875 23.1796875 C16.41351562 23.78039062 16.20984375 24.38109375 16 25 C10.45787566 16.78538883 4.9668884 8.58100639 0 0 Z " fill="#F2F2F2" transform="translate(928,350)"/>
<path d="M0 0 C0 0.66 0 1.32 0 2 C-8.14818424 5.13391701 -16.37442193 5.16206723 -25 5 C-25 4.34 -25 3.68 -25 3 C-21.58399853 2.49538375 -18.1671006 1.99711424 -14.75 1.5 C-13.78191406 1.35691406 -12.81382813 1.21382812 -11.81640625 1.06640625 C-10.41455078 0.86337891 -10.41455078 0.86337891 -8.984375 0.65625 C-8.12553711 0.53056641 -7.26669922 0.40488281 -6.38183594 0.27539062 C-4 0 -4 0 0 0 Z " fill="#E9E9E9" transform="translate(1275,569)"/>
<path d="M0 0 C-0.33 0.99 -0.66 1.98 -1 3 C-7.93 3 -14.86 3 -22 3 C-15.72535343 -1.18309772 -7.29775834 -0.12073497 0 0 Z " fill="#F3F3F4" transform="translate(1250,572)"/>
<path d="M0 0 C-2.83890446 1.4746712 -5.6968137 2.68075881 -8.6875 3.8125 C-13.71808851 5.79334094 -18.3477095 8.25807033 -23 11 C-22.8671875 9.19921875 -22.8671875 9.19921875 -22 7 C-19.3828125 5.33203125 -19.3828125 5.33203125 -16.125 3.8125 C-15.05507812 3.30332031 -13.98515625 2.79414063 -12.8828125 2.26953125 C-8.31892664 0.25968992 -4.97442828 -0.09385714 0 0 Z " fill="#F2F2F2" transform="translate(1496,391)"/>
<path d="M0 0 C2.89734284 2.75755875 5.24024134 5.57780668 7.5 8.875 C8.09941406 9.74898438 8.69882812 10.62296875 9.31640625 11.5234375 C9.87199219 12.34070313 10.42757812 13.15796875 11 14 C11.44214844 14.63164062 11.88429688 15.26328125 12.33984375 15.9140625 C15 19.75756228 15 19.75756228 15 22 C11.15446473 20.71815491 10.68767041 19.30033956 8.625 15.875 C6.54693575 12.47773998 4.45851915 9.18103967 2.0625 6 C0 3 0 3 0 0 Z " fill="#F4F4F4" transform="translate(931,458)"/>
<path d="M0 0 C0.66 0 1.32 0 2 0 C-1.50340075 7.58223931 -6.51206344 12.3986623 -14.27734375 15.40625 C-14.84582031 15.6021875 -15.41429687 15.798125 -16 16 C-16 15.01 -16 14.02 -16 13 C-15.43152344 12.731875 -14.86304688 12.46375 -14.27734375 12.1875 C-8.79224277 9.40374258 -5.19993641 6.42119527 -1.41015625 1.57421875 C-0.71212891 0.79498047 -0.71212891 0.79498047 0 0 Z " fill="#F2F2F2" transform="translate(710,390)"/>
<path d="M0 0 C0.66 0 1.32 0 2 0 C0.40793523 7.07584343 -4.44070519 12.43158198 -10.3125 16.5 C-13 18 -13 18 -15 18 C-15 17.34 -15 16.68 -15 16 C-13.4609375 15.02734375 -13.4609375 15.02734375 -11.375 13.9375 C-5.81417758 10.63853963 -2.84275945 5.68551891 0 0 Z " fill="#F2F1F2" transform="translate(718,499)"/>
<path d="M0 0 C0.33 0 0.66 0 1 0 C1.33 11.88 1.66 23.76 2 36 C-1 33 -1 33 -1.2487793 29.63012695 C-1.20643677 28.24893499 -1.14719985 26.86819353 -1.07421875 25.48828125 C-1.04777786 24.76005661 -1.02133698 24.03183197 -0.99409485 23.28153992 C-0.90638495 20.95768728 -0.79722285 18.63540721 -0.6875 16.3125 C-0.62423532 14.73638431 -0.56236945 13.16021181 -0.50195312 11.58398438 C-0.35085376 7.72180981 -0.18051077 3.8609072 0 0 Z " fill="#F5F5F5" transform="translate(1409,311)"/>
<path d="M0 0 C2.95545528 1.47772764 3.15922614 3.83679282 4.20703125 6.8046875 C4.93849056 8.82971279 5.75207634 10.78272813 6.625 12.75 C7.66626728 15.21117721 8.47935023 17.39675117 9 20 C8.34 20 7.68 20 7 20 C3.11939892 13.71074997 0 7.50733847 0 0 Z " fill="#EBEAEB" transform="translate(585,511)"/>
<path d="M0 0 C4.50703648 1.50234549 6.41112851 5.11309355 8.8125 8.9375 C9.23208984 9.57107422 9.65167969 10.20464844 10.08398438 10.85742188 C11.14420878 12.51849833 12.08160364 14.2564981 13 16 C12.67 16.99 12.34 17.98 12 19 C10.37212884 16.58522432 8.74762719 14.16829562 7.125 11.75 C6.66480469 11.06808594 6.20460938 10.38617188 5.73046875 9.68359375 C5.28574219 9.01972656 4.84101562 8.35585938 4.3828125 7.671875 C3.97434082 7.0644043 3.56586914 6.45693359 3.14501953 5.83105469 C1.96232952 3.93975937 0.96591396 2.00941138 0 0 Z " fill="#EEEEEE" transform="translate(905,315)"/>
<path d="M0 0 C1.051875 0.58007812 1.051875 0.58007812 2.125 1.171875 C7.69832834 4.23114762 13.29206196 7.19987945 19 10 C16.69326323 10.79454266 15.42111366 11.13895046 13.0703125 10.36328125 C1.34285714 4.02857143 1.34285714 4.02857143 0 0 Z " fill="#ECECEC" transform="translate(1166,553)"/>
<path d="M0 0 C0.74886475 0.00523682 1.49772949 0.01047363 2.26928711 0.01586914 C3.07817383 0.0190918 3.88706055 0.02231445 4.72045898 0.02563477 C5.5705957 0.03401367 6.42073242 0.04239258 7.29663086 0.05102539 C8.15063477 0.05553711 9.00463867 0.06004883 9.88452148 0.06469727 C12.00108749 0.07652166 14.11761771 0.0944577 16.23413086 0.11352539 C13.57700834 2.77064791 11.99803124 2.46515773 8.29663086 2.67602539 C4.98942138 2.87293094 2.38528921 3.06313927 -0.76586914 4.11352539 C-1.42586914 3.12352539 -2.08586914 2.13352539 -2.76586914 1.11352539 C-1.76586914 0.11352539 -1.76586914 0.11352539 0 0 Z " fill="#F1EFF0" transform="translate(1008.765869140625,298.886474609375)"/>
<path d="M0 0 C0.928125 0.825 1.85625 1.65 2.8125 2.5 C7.63858793 6.65083283 12.81940662 10.30894432 18 14 C17.01 14.33 16.02 14.66 15 15 C10.68546408 12.56134926 7.39796536 9.57680564 4 6 C3.236875 5.278125 2.47375 4.55625 1.6875 3.8125 C0 2 0 2 0 0 Z " fill="#EEEEEE" transform="translate(1420,542)"/>
<path d="M0 0 C2.97 0 5.94 0 9 0 C9 0.66 9 1.32 9 2 C11.97 2.495 11.97 2.495 15 3 C15 3.33 15 3.66 15 4 C9.26157749 4.20413361 4.39460953 4.27141454 -1 2 C-0.67 1.34 -0.34 0.68 0 0 Z " fill="#FD5B16" transform="translate(438,568)"/>
<path d="M0 0 C0.66 0.33 1.32 0.66 2 1 C0.68 2.65 -0.64 4.3 -2 6 C-1.34 6.33 -0.68 6.66 0 7 C-0.99 7.33 -1.98 7.66 -3 8 C-4.10636395 10.39068734 -4.10636395 10.39068734 -5 13 C-5.66 13.99 -6.32 14.98 -7 16 C-6.53031881 10.36382567 -5.09327687 5.78582459 -2 1 C-1.34 0.67 -0.68 0.34 0 0 Z " fill="#F6F5F4" transform="translate(597,336)"/>
<path d="M0 0 C3.65943647 0.68907122 7.22441959 1.56821266 10.8125 2.5625 C12.27623047 2.96662109 12.27623047 2.96662109 13.76953125 3.37890625 C14.87361328 3.68634766 14.87361328 3.68634766 16 4 C15.67 4.99 15.34 5.98 15 7 C12.87434778 6.35631658 10.74949654 5.70998756 8.625 5.0625 C7.44164062 4.70285156 6.25828125 4.34320312 5.0390625 3.97265625 C2 3 2 3 0 2 C0 1.34 0 0.68 0 0 Z " fill="#ECECEC" transform="translate(1186,564)"/>
<path d="M0 0 C3.00117879 1.5005894 3.59903432 3.83882403 5.0625 6.8125 C5.58972656 7.87082031 6.11695313 8.92914062 6.66015625 10.01953125 C7.72736146 12.39351834 8.50231085 14.46239975 9 17 C8.34 16.67 7.68 16.34 7 16 C7 15.34 7 14.68 7 14 C6.34 14 5.68 14 5 14 C4.15675328 12.421924 3.32576082 10.8372958 2.5 9.25 C2.0359375 8.36828125 1.571875 7.4865625 1.09375 6.578125 C0 4 0 4 0 0 Z " fill="#EDECED" transform="translate(1133,513)"/>
<path d="M0 0 C3.65938172 1.43164111 7.23988068 2.98934296 10.8125 4.625 C12.27623047 5.29402344 12.27623047 5.29402344 13.76953125 5.9765625 C14.50558594 6.31429687 15.24164062 6.65203125 16 7 C16 7.33 16 7.66 16 8 C10.46103154 7.5384193 5.60352101 6.25614901 1 3 C0.67 2.01 0.34 1.02 0 0 Z " fill="#EBE9E9" transform="translate(1439,557)"/>
<path d="M0 0 C0.33 0.99 0.66 1.98 1 3 C-0.55367366 4.01365893 -2.11837836 5.01042256 -3.6875 6 C-4.99267578 6.8353125 -4.99267578 6.8353125 -6.32421875 7.6875 C-9.16973337 9.08325608 -10.8788594 9.26993648 -14 9 C-11.03786426 6.69534766 -7.97847243 4.72409552 -4.75 2.8125 C-3.85796875 2.28269531 -2.9659375 1.75289062 -2.046875 1.20703125 C-1.03367187 0.60955078 -1.03367187 0.60955078 0 0 Z " fill="#EFEFEF" transform="translate(1561,554)"/>
<path d="M0 0 C4.10088936 1.50607883 5.53509554 3.96188878 7.75 7.625 C8.36359375 8.62789063 8.9771875 9.63078125 9.609375 10.6640625 C10.06828125 11.43492187 10.5271875 12.20578125 11 13 C10.34 13.66 9.68 14.32 9 15 C5.658525 10.17342499 2.79725916 5.1588796 0 0 Z " fill="#F3F3F3" transform="translate(993,447)"/>
<path d="M0 0 C4.97166604 0.473492 8.10996636 1.85092515 12 5 C12 5.99 12 6.98 12 8 C11.20335937 7.45859375 11.20335937 7.45859375 10.390625 6.90625 C9.68421875 6.4421875 8.9778125 5.978125 8.25 5.5 C7.55390625 5.0359375 6.8578125 4.571875 6.140625 4.09375 C3.80698194 2.69666898 3.80698194 2.69666898 0 3 C0 2.01 0 1.02 0 0 Z " fill="#F3F3F3" transform="translate(746,434)"/>
<path d="M0 0 C3 1 3 1 4.3515625 3.14453125 C4.77179688 4.02496094 5.19203125 4.90539062 5.625 5.8125 C6.05039063 6.68519531 6.47578125 7.55789063 6.9140625 8.45703125 C7.85011879 10.64901917 8.51211657 12.67442231 9 15 C4.73347598 11.2075342 2.10519025 7.32766024 0 2 C0 1.34 0 0.68 0 0 Z " fill="#F3F3F3" transform="translate(1193,486)"/>
<path d="M0 0 C2 2 2 2 2.1953125 4.8203125 C2.16050781 6.45613281 2.16050781 6.45613281 2.125 8.125 C2.10695313 9.22070312 2.08890625 10.31640625 2.0703125 11.4453125 C2.04710937 12.28835938 2.02390625 13.13140625 2 14 C1.34 14 0.68 14 0 14 C-1.10424872 9.58300512 -1.15088074 5.52642225 -1 1 C-0.67 0.67 -0.34 0.34 0 0 Z " fill="#F0EEEF" transform="translate(583,487)"/>
<path d="M0 0 C0.99 0.495 0.99 0.495 2 1 C3.14242743 5.68395246 3.08252495 10.21355271 3 15 C2.01 15.495 2.01 15.495 1 16 C0.08342019 10.61509359 -0.11138159 5.45769811 0 0 Z " fill="#EFEFEF" transform="translate(713,366)"/>
<path d="M0 0 C-1 3 -1 3 -2.671875 4.16796875 C-9.57251908 7.55343511 -9.57251908 7.55343511 -14 7 C-10.33997803 3.94998169 -4.92148529 0 0 0 Z " fill="#EDEDED" transform="translate(746,558)"/>
<path d="M0 0 C4.875 4.625 4.875 4.625 6 8 C7.32467746 8.6837045 8.65863633 9.34964186 10 10 C10.99 11.485 10.99 11.485 12 13 C6.85599584 11.63835184 3.8743952 8.3115928 1 4 C0.328125 1.7734375 0.328125 1.7734375 0 0 Z " fill="#F2F2F2" transform="translate(648,501)"/>
<path d="M0 0 C0.66 0 1.32 0 2 0 C3.4631783 1.97440927 4.80713064 3.93238871 6.125 6 C6.49753906 6.57234375 6.87007812 7.1446875 7.25390625 7.734375 C8.17550408 9.15221782 9.08855821 10.57560725 10 12 C9.01 12 8.02 12 7 12 C5.17578125 9.8828125 5.17578125 9.8828125 3.3125 7.125 C2.37857422 5.76761719 2.37857422 5.76761719 1.42578125 4.3828125 C0 2 0 2 0 0 Z " fill="#F1F1F1" transform="translate(946,481)"/>
<path d="M0 0 C-1.74906531 0.64836042 -3.49929219 1.29358784 -5.25 1.9375 C-6.71179687 2.47697266 -6.71179687 2.47697266 -8.203125 3.02734375 C-10.46457161 3.81379655 -12.66796552 4.47251601 -15 5 C-10.49364994 -0.03650889 -6.42755845 -3.66301718 0 0 Z " fill="#F4F4F4" transform="translate(1489,442)"/>
<path d="M0 0 C3.08859947 1.35335595 5.007964 2.80886249 7.1875 5.375 C7.95126953 6.25285156 7.95126953 6.25285156 8.73046875 7.1484375 C10.07559273 9.11024909 10.57514402 10.676089 11 13 C9.33333333 11.33333333 7.66666667 9.66666667 6 8 C5.0925 7.13375 4.185 6.2675 3.25 5.375 C1 3 1 3 0 0 Z " fill="#F3F2F3" transform="translate(1522,447)"/>
<path d="M0 0 C0.33 0 0.66 0 1 0 C1.33 3.63 1.66 7.26 2 11 C2.99 10.01 3.98 9.02 5 8 C5.99 8.33 6.98 8.66 8 9 C2.25 14 2.25 14 0 14 C0 9.38 0 4.76 0 0 Z " fill="#F5F5F5" transform="translate(1464,394)"/>
<path d="M0 0 C4.56846667 3.52960987 7.86175 6.46570589 10 12 C10 12.66 10 13.32 10 14 C9.34 14 8.68 14 8 14 C6.5625 11.953125 6.5625 11.953125 5 9.25 C4.484375 8.36828125 3.96875 7.4865625 3.4375 6.578125 C2.22849521 4.4098012 1.08486923 2.23232706 0 0 Z " fill="#F0F0F0" transform="translate(710,466)"/>
<path d="M0 0 C3.37227049 1.39367924 4.90493713 2.84275299 6.8125 5.9375 C7.25207031 6.62714844 7.69164062 7.31679688 8.14453125 8.02734375 C9 10 9 10 8 13 C6.84962529 11.3990869 5.70485184 9.79414775 4.5625 8.1875 C3.92441406 7.29417969 3.28632812 6.40085937 2.62890625 5.48046875 C1 3 1 3 0 0 Z " fill="#F0F0F0" transform="translate(919,336)"/>
<path d="M0 0 C1.06528748 2.73019786 1.07998186 3.79298812 0.00390625 6.578125 C-0.47175781 7.45984375 -0.94742188 8.3415625 -1.4375 9.25 C-1.91058594 10.14203125 -2.38367188 11.0340625 -2.87109375 11.953125 C-3.24363281 12.62859375 -3.61617187 13.3040625 -4 14 C-4.66 14 -5.32 14 -6 14 C-4.16508812 9.25981099 -2.08058541 4.63586749 0 0 Z " fill="#F0F0EF" transform="translate(779,518)"/>
<path d="M0 0 C0.99 0 1.98 0 3 0 C3.66 3.63 4.32 7.26 5 11 C4.34 11 3.68 11 3 11 C2.49384702 9.73160474 1.99530901 8.46016898 1.5 7.1875 C1.2215625 6.47980469 0.943125 5.77210938 0.65625 5.04296875 C0 3 0 3 0 0 Z " fill="#EEEDEE" transform="translate(1402,508)"/>
<path d="M0 0 C0 0.33 0 0.66 0 1 C2.31 1.33 4.62 1.66 7 2 C7 2.33 7 2.66 7 3 C1.39 3 -4.22 3 -10 3 C-6.1865669 0.45771127 -4.5252563 -0.11908569 0 0 Z " fill="#F2F2F2" transform="translate(1508,388)"/>
<path d="M0 0 C-4.92984325 2.03993514 -8.57960425 3.40652968 -14 3 C-11.87033995 0.87033995 -10.95931796 0.52375338 -8.125 -0.1875 C-7.44695312 -0.36667969 -6.76890625 -0.54585938 -6.0703125 -0.73046875 C-3.77181444 -1.02970718 -2.19449036 -0.69377386 0 0 Z " fill="#EDEDED" transform="translate(1261,512)"/>
<path d="M0 0 C0.66 0.33 1.32 0.66 2 1 C-0.38179263 4.74281699 -2.74475735 7.97727468 -6 11 C-6.99 10.67 -7.98 10.34 -9 10 C-8.34 10 -7.68 10 -7 10 C-6.67 9.01 -6.34 8.02 -6 7 C-5.34 7 -4.68 7 -4 7 C-3.71125 6.401875 -3.4225 5.80375 -3.125 5.1875 C-2 3 -2 3 0 0 Z " fill="#F1F1F1" transform="translate(1530,502)"/>
<path d="M0 0 C3.15444475 1.34805331 4.81222823 2.67707323 6.75 5.5 C7.17796875 6.1084375 7.6059375 6.716875 8.046875 7.34375 C9 9 9 9 9 11 C5.28720216 9.55613418 4.0513557 7.87763608 2.25 4.375 C1.82203125 3.55773437 1.3940625 2.74046875 0.953125 1.8984375 C0.63859375 1.27195312 0.3240625 0.64546875 0 0 Z " fill="#F1F1F1" transform="translate(946,377)"/>
<path d="M0 0 C1.09898702 3.29696105 0.87124444 4.40494903 0.0625 7.6875 C-0.22947266 8.89986328 -0.22947266 8.89986328 -0.52734375 10.13671875 C-0.68332031 10.75160156 -0.83929687 11.36648438 -1 12 C-1.99 12 -2.98 12 -4 12 C-3.52494322 10.18641846 -3.04483958 8.37415821 -2.5625 6.5625 C-2.29566406 5.55316406 -2.02882813 4.54382813 -1.75390625 3.50390625 C-1 1 -1 1 0 0 Z " fill="#F95420" transform="translate(561,309)"/>
<path d="M0 0 C2.67455183 1.33727591 2.98881385 2.73288323 4.1875 5.4375 C4.55230469 6.24058594 4.91710938 7.04367187 5.29296875 7.87109375 C6 10 6 10 5 12 C1.91019927 10.45509963 1.31632597 8.11131592 0 5 C-0.1875 2.125 -0.1875 2.125 0 0 Z " fill="#EEEDEE" transform="translate(1407,520)"/>
<path d="M0 0 C0.99 0 1.98 0 3 0 C6.22265625 5.17578125 6.22265625 5.17578125 7 7 C6.67 7.99 6.34 8.98 6 10 C4.99723227 8.52270825 3.99785546 7.04311423 3 5.5625 C2.443125 4.73878906 1.88625 3.91507812 1.3125 3.06640625 C0 1 0 1 0 0 Z " fill="#EFEFEF" transform="translate(897,303)"/>
<path d="M0 0 C3.26008643 3.16952847 6.22237877 6.39937989 9 10 C8.01 10.495 8.01 10.495 7 11 C5.82439821 9.73742767 4.65977135 8.46462916 3.5 7.1875 C2.8503125 6.47980469 2.200625 5.77210938 1.53125 5.04296875 C0 3 0 3 0 0 Z " fill="#F2F2F2" transform="translate(1143,531)"/>
<path d="M0 0 C4.04648443 1.34882814 4.95502599 3.34826069 7 7 C6.67 7.99 6.34 8.98 6 10 C4.99421411 8.71283353 3.99553202 7.42011342 3 6.125 C2.443125 5.40570313 1.88625 4.68640625 1.3125 3.9453125 C0 2 0 2 0 0 Z " fill="#F3F3F3" transform="translate(981,429)"/>
<path d="M0 0 C3.79588866 0.54226981 5.47211993 2.20127563 8 5 C7.67 5.99 7.34 6.98 7 8 C5.83035398 6.8572081 4.66435444 5.71068285 3.5 4.5625 C2.8503125 3.92441406 2.200625 3.28632813 1.53125 2.62890625 C0 1 0 1 0 0 Z " fill="#EDEDEC" transform="translate(1569,409)"/>
<path d="M0 0 C0.33 0.99 0.66 1.98 1 3 C-1.8125 5.0625 -1.8125 5.0625 -5 7 C-5.99 6.67 -6.98 6.34 -8 6 C-5.36 4.02 -2.72 2.04 0 0 Z " fill="#ECEBEC" transform="translate(756,550)"/>
<path d="M0 0 C0 4.38968456 -2.12805101 5.76905739 -5 9 C-5.66 8.67 -6.32 8.34 -7 8 C-4.69 5.36 -2.38 2.72 0 0 Z " fill="#ECECEC" transform="translate(1332,533)"/>
<path d="M0 0 C1.39195915 4.17587745 -0.17676781 6.13474776 -2 10 C-2.66 10 -3.32 10 -4 10 C-3.52449439 8.51965236 -3.04448784 7.04074979 -2.5625 5.5625 C-2.29566406 4.73878906 -2.02882813 3.91507812 -1.75390625 3.06640625 C-1 1 -1 1 0 0 Z " fill="#F44517" transform="translate(448,433)"/>
<path d="M0 0 C0.33 0.99 0.66 1.98 1 3 C-1.97 5.475 -1.97 5.475 -5 8 C-5 5 -5 5 -2.5 2.3125 C-1.675 1.549375 -0.85 0.78625 0 0 Z " fill="#F5F4F5" transform="translate(1472,447)"/>
<path d="M0 0 C3.87132028 0.57352893 6.08172796 2.48704352 9 5 C8.67 5.99 8.34 6.98 8 8 C6.66372225 6.85760183 5.33104612 5.71098945 4 4.5625 C3.2575 3.92441406 2.515 3.28632813 1.75 2.62890625 C1.1725 2.09136719 0.595 1.55382812 0 1 C0 0.67 0 0.34 0 0 Z " fill="#ECECEB" transform="translate(760,443)"/>
<path d="M0 0 C0.66 0.33 1.32 0.66 2 1 C1.34 3.31 0.68 5.62 0 8 C-0.99 8 -1.98 8 -3 8 C-1.125 2.25 -1.125 2.25 0 0 Z " fill="#F95522" transform="translate(513,439)"/>
<path d="M0 0 C3.80666984 1.44390925 5.26602582 3.34952803 7 7 C6.67 7.66 6.34 8.32 6 9 C3.03134491 6.45543849 1.6380249 3.51005335 0 0 Z " fill="#F2F2F2" transform="translate(968,410)"/>
<path d="M0 0 C4 2 4 2 6 5 C6 5.99 6 6.98 6 8 C5.34 8 4.68 8 4 8 C2.68 5.36 1.36 2.72 0 0 Z " fill="#F3F3F3" transform="translate(588,523)"/>
<path d="M0 0 C0.66 0 1.32 0 2 0 C5.11450382 4.15267176 5.11450382 4.15267176 4.6875 7.3125 C4.460625 7.869375 4.23375 8.42625 4 9 C0 2.25 0 2.25 0 0 Z " fill="#EEEEEE" transform="translate(1585,427)"/>
<path d="M0 0 C1.48199902 0.44909061 2.96055236 0.90956564 4.4375 1.375 C5.26121094 1.63023437 6.08492187 1.88546875 6.93359375 2.1484375 C9 3 9 3 10 5 C8.51793505 4.745504 7.03931385 4.47088238 5.5625 4.1875 C4.73878906 4.03667969 3.91507813 3.88585937 3.06640625 3.73046875 C2.38449219 3.48941406 1.70257812 3.24835937 1 3 C0.67 2.01 0.34 1.02 0 0 Z " fill="#F6F6F7" transform="translate(626,558)"/>
<path d="M0 0 C1.14926266 0.95421808 2.29430541 1.91352045 3.4375 2.875 C4.07558594 3.40867187 4.71367188 3.94234375 5.37109375 4.4921875 C7 6 7 6 8 8 C5.04987143 6.63029745 2.4347778 5.17390875 0 3 C0 2.01 0 1.02 0 0 Z " fill="#F4F3F3" transform="translate(1153,542)"/>
<path d="M0 0 C0.33 0.99 0.66 1.98 1 3 C1.66 3 2.32 3 3 3 C3 5.31 3 7.62 3 10 C-0.00617269 6.99382731 0.40414684 4.17618402 0 0 Z " fill="#E5E5E6" transform="translate(645,490)"/>
<path d="M0 0 C3.82097239 0.53069061 6.06171403 1.49701566 9 4 C2.25 3.125 2.25 3.125 0 2 C0 1.34 0 0.68 0 0 Z " fill="#F2F2F2" transform="translate(694,458)"/>
<path d="" fill="#FFFFFF" transform="translate(0,0)"/>
<path d="" fill="#FF0000" transform="translate(0,0)"/>
<path d="" fill="#FFFFFF" transform="translate(0,0)"/>
<path d="" fill="#FF8080" transform="translate(0,0)"/>
</svg>
